<?xml version="1.0" encoding="UTF-8"?>
<!DOCTYPE svg PUBLIC "-//W3C//DTD SVG 1.1//EN" "http://www.w3.org/Graphics/SVG/1.1/DTD/svg11.dtd">
<svg xmlns="http://www.w3.org/2000/svg" version="1.1" width="4088px" height="2769px" style="shape-rendering:geometricPrecision; text-rendering:geometricPrecision; image-rendering:optimizeQuality; fill-rule:evenodd; clip-rule:evenodd" xmlns:xlink="http://www.w3.org/1999/xlink">
<g><path style="opacity:0.998" fill="#fefffe" d="M 2333.5,266.5 C 2335.07,266.937 2336.24,267.937 2337,269.5C 2617.17,754.5 2897.33,1239.5 3177.5,1724.5C 2959.83,1725.67 2742.17,1725.83 2524.5,1725C 2298.5,1332.67 2072.5,940.333 1846.5,548C 2008.9,454.14 2171.23,360.307 2333.5,266.5 Z"/></g>
<g><path style="opacity:0.996" fill="#fefffe" d="M 1770.5,778.5 C 1771.38,778.369 1772.04,778.702 1772.5,779.5C 1954.12,1094.58 2136.12,1409.41 2318.5,1724C 2364.83,1724.5 2411.17,1724.67 2457.5,1724.5C 2457.5,1975.5 2457.5,2226.5 2457.5,2477.5C 2410.83,2477.5 2364.17,2477.5 2317.5,2477.5C 2317.83,2464.82 2317.5,2452.15 2316.5,2439.5C 2241.45,2488.12 2160.45,2501.29 2073.5,2479C 1971.76,2447.6 1904.93,2381.1 1873,2279.5C 1848.27,2182.48 1866.27,2094.48 1927,2015.5C 2004.26,1927.63 2100.76,1894.47 2216.5,1916C 2252.77,1924.3 2286.27,1938.8 2317,1959.5C 2317.5,1881.5 2317.67,1803.5 2317.5,1725.5C 2147.17,1725.5 1976.83,1725.5 1806.5,1725.5C 1806.5,1772.17 1806.5,1818.83 1806.5,1865.5C 1759.5,1865.5 1712.5,1865.5 1665.5,1865.5C 1665.67,1818.5 1665.5,1771.5 1665,1724.5C 1537.5,1502.83 1410,1281.17 1282.5,1059.5C 1445.23,965.806 1607.9,872.14 1770.5,778.5 Z M 2148.5,2039.5 C 2220.72,2038.67 2272.89,2070.34 2305,2134.5C 2329.9,2198.43 2320.23,2256.43 2276,2308.5C 2224.58,2358.12 2165.08,2370.95 2097.5,2347C 2051.14,2325.97 2020.31,2291.14 2005,2242.5C 1991.3,2186.97 2002.63,2137.31 2039,2093.5C 2068.59,2061.46 2105.09,2043.46 2148.5,2039.5 Z"/></g>
<g><path style="opacity:0.995" fill="#fefffe" d="M 1199.5,1279.5 C 1200.5,1279.41 1201.33,1279.75 1202,1280.5C 1287.5,1428.17 1373,1575.83 1458.5,1723.5C 1505.16,1724.5 1551.83,1724.83 1598.5,1724.5C 1598.5,1975.5 1598.5,2226.5 1598.5,2477.5C 1551.83,2477.5 1505.17,2477.5 1458.5,2477.5C 1458.67,2464.5 1458.5,2451.5 1458,2438.5C 1396.42,2480.18 1328.59,2496.35 1254.5,2487C 1160.76,2472.75 1089.59,2425.25 1041,2344.5C 1001.83,2272.84 992.833,2197.51 1014,2118.5C 1042.3,2028.73 1099.8,1965.57 1186.5,1929C 1242.2,1907.98 1299.2,1903.65 1357.5,1916C 1393.65,1924.25 1426.99,1938.75 1457.5,1959.5C 1458.5,1881.5 1458.83,1803.5 1458.5,1725.5C 1241.5,1725.67 1024.5,1725.5 807.5,1725C 775.654,1670.31 744.32,1615.31 713.5,1560C 713.833,1559.5 714.167,1559 714.5,1558.5C 876.393,1465.73 1038.06,1372.73 1199.5,1279.5 Z M 1288.5,2039.5 C 1359.12,2038.37 1410.96,2068.71 1444,2130.5C 1470.1,2192.23 1462.76,2249.56 1422,2302.5C 1379.03,2349.38 1326.19,2366.88 1263.5,2355C 1198.94,2337.1 1158.77,2295.6 1143,2230.5C 1132.31,2157.4 1157.81,2100.9 1219.5,2061C 1241.09,2048.86 1264.09,2041.69 1288.5,2039.5 Z"/></g>
<g><path style="opacity:0.994" fill="#fefffe" d="M 618.5,1909.5 C 686.646,1905.12 748.979,1921.78 805.5,1959.5C 806.499,1944.85 806.833,1930.18 806.5,1915.5C 853.167,1915.5 899.833,1915.5 946.5,1915.5C 946.5,2102.83 946.5,2290.17 946.5,2477.5C 899.833,2477.5 853.167,2477.5 806.5,2477.5C 806.667,2464.5 806.5,2451.5 806,2438.5C 742.172,2481.47 672.006,2497.3 595.5,2486C 492.884,2467.14 419.384,2410.64 375,2316.5C 348.133,2250.9 344.133,2183.9 363,2115.5C 394.179,2020.32 457.012,1956.15 551.5,1923C 573.521,1916.23 595.854,1911.73 618.5,1909.5 Z M 637.5,2039.5 C 709.723,2038.67 761.89,2070.34 794,2134.5C 815.359,2187.22 811.359,2237.89 782,2286.5C 741.247,2343.32 686.08,2366.49 616.5,2356C 570.146,2345.96 534.646,2320.79 510,2280.5C 487.264,2239.94 482.264,2197.28 495,2152.5C 519.163,2085.34 566.663,2047.68 637.5,2039.5 Z"/></g>
<g><path style="opacity:0.994" fill="#fefffe" d="M 2781.5,1909.5 C 2849.65,1905.12 2911.98,1921.78 2968.5,1959.5C 2969.5,1944.85 2969.83,1930.18 2969.5,1915.5C 3016.17,1915.5 3062.83,1915.5 3109.5,1915.5C 3109.5,2102.83 3109.5,2290.17 3109.5,2477.5C 3062.83,2477.5 3016.17,2477.5 2969.5,2477.5C 2969.67,2464.5 2969.5,2451.5 2969,2438.5C 2905.17,2481.47 2835.01,2497.3 2758.5,2486C 2655.88,2467.14 2582.38,2410.64 2538,2316.5C 2511.16,2250.9 2507.16,2183.9 2526,2115.5C 2557.18,2020.32 2620.01,1956.15 2714.5,1923C 2736.52,1916.23 2758.85,1911.73 2781.5,1909.5 Z M 2800.5,2039.5 C 2871.73,2038.68 2923.57,2069.68 2956,2132.5C 2979.5,2189.12 2974.17,2242.79 2940,2293.5C 2898.89,2345.55 2845.39,2366.38 2779.5,2356C 2733.15,2345.96 2697.65,2320.79 2673,2280.5C 2650.26,2239.94 2645.26,2197.28 2658,2152.5C 2682.16,2085.34 2729.66,2047.68 2800.5,2039.5 Z"/></g>
<g><path style="opacity:0.992" fill="#fefffe" d="M 3379.5,1909.5 C 3430.91,1905.87 3480.58,1913.37 3528.5,1932C 3598.11,1963.46 3636.45,2017.3 3643.5,2093.5C 3596.17,2093.5 3548.83,2093.5 3501.5,2093.5C 3497.69,2052.85 3475.69,2028.35 3435.5,2020C 3406.37,2014.14 3377.71,2015.8 3349.5,2025C 3320.71,2036.42 3310.54,2056.92 3319,2086.5C 3324.75,2094.97 3332.25,2101.47 3341.5,2106C 3358.6,2113.14 3376.27,2118.48 3394.5,2122C 3434.86,2129.87 3475.19,2137.87 3515.5,2146C 3642.16,2173.69 3687.32,2249.85 3651,2374.5C 3635.91,2408.59 3612.08,2434.76 3579.5,2453C 3536.56,2475.15 3490.9,2486.82 3442.5,2488C 3391.1,2490.82 3341.1,2483.82 3292.5,2467C 3244.06,2449.54 3206.89,2418.71 3181,2374.5C 3168.22,2349.37 3161.38,2322.7 3160.5,2294.5C 3208.5,2294.5 3256.5,2294.5 3304.5,2294.5C 3307.21,2332.72 3326.55,2358.55 3362.5,2372C 3401.11,2385 3439.78,2385.33 3478.5,2373C 3495.95,2365.88 3507.45,2353.38 3513,2335.5C 3515.86,2317.4 3510.02,2302.9 3495.5,2292C 3481.85,2283.78 3467.19,2278.12 3451.5,2275C 3402.99,2266.56 3354.65,2257.23 3306.5,2247C 3275.5,2239.99 3247.17,2227.33 3221.5,2209C 3191.37,2183.24 3175.21,2150.41 3173,2110.5C 3169,2036.66 3198.5,1980.83 3261.5,1943C 3298.56,1923.41 3337.89,1912.24 3379.5,1909.5 Z"/></g>
<g><path style="opacity:0.989" fill="#fefffe" d="M 1665.5,1915.5 C 1712.5,1915.5 1759.5,1915.5 1806.5,1915.5C 1806.5,2102.83 1806.5,2290.17 1806.5,2477.5C 1759.5,2477.5 1712.5,2477.5 1665.5,2477.5C 1665.5,2290.17 1665.5,2102.83 1665.5,1915.5 Z"/></g>
</svg>
