<?xml version="1.0" encoding="UTF-8"?>
<!DOCTYPE svg PUBLIC "-//W3C//DTD SVG 1.1//EN" "http://www.w3.org/Graphics/SVG/1.1/DTD/svg11.dtd">
<svg xmlns="http://www.w3.org/2000/svg" version="1.1" width="5000px" height="1907px" style="shape-rendering:geometricPrecision; text-rendering:geometricPrecision; image-rendering:optimizeQuality; fill-rule:evenodd; clip-rule:evenodd" xmlns:xlink="http://www.w3.org/1999/xlink">
<g><path style="opacity:0.994" fill="#fefffe" d="M 1513.5,358.5 C 1565.48,354.625 1615.81,361.791 1664.5,380C 1725.56,406.399 1765.4,451.566 1784,515.5C 1795.52,559.718 1797.52,604.385 1790,649.5C 1782.88,692.313 1771.55,733.979 1756,774.5C 1725.65,851.873 1687.98,925.206 1643,994.5C 1545.82,1145.07 1428.32,1278.57 1290.5,1395C 1230.67,1444.93 1166.67,1488.93 1098.5,1527C 1041.74,1558.59 981.735,1581.92 918.5,1597C 862.016,1609.73 805.349,1610.73 748.5,1600C 692.294,1588.51 647.127,1560.01 613,1514.5C 587.78,1475.16 575.28,1431.99 575.5,1385C 576.65,1329.58 588.15,1276.41 610,1225.5C 635.456,1167.2 668.456,1113.87 709,1065.5C 811.824,945.178 934.658,851.011 1077.5,783C 1119.49,763.446 1162.82,747.446 1207.5,735C 1250.4,722.846 1294.06,718.179 1338.5,721C 1370.78,723.201 1399.78,733.868 1425.5,753C 1455.09,780.435 1467.26,814.269 1462,854.5C 1460.62,862.662 1458.96,870.662 1457,878.5C 1503.26,823.496 1541.6,763.163 1572,697.5C 1585.49,667.354 1595.16,636.021 1601,603.5C 1612.12,539.916 1589.62,492.75 1533.5,462C 1502.21,448.008 1469.38,441.175 1435,441.5C 1380.83,443.533 1328,453.033 1276.5,470C 1169.2,506.314 1069.53,556.814 977.5,621.5C 973.839,616.999 970.339,612.332 967,607.5C 966.018,606.241 965.685,604.908 966,603.5C 1068.22,518.266 1182.05,451.766 1307.5,404C 1374.16,379.039 1442.82,363.872 1513.5,358.5 Z M 1301.5,800.5 C 1386.88,798.691 1417.71,838.691 1394,920.5C 1383.86,947.797 1369.86,972.797 1352,995.5C 1284.03,1073.16 1206.19,1138.66 1118.5,1192C 1084.39,1212.55 1048.05,1227.89 1009.5,1238C 986.03,1243.92 962.363,1244.92 938.5,1241C 896.401,1229.72 874.401,1202.22 872.5,1158.5C 873.884,1134.85 880.05,1112.51 891,1091.5C 911.023,1054.14 935.689,1020.14 965,989.5C 1025.92,925.574 1096.08,874.407 1175.5,836C 1215.6,816.906 1257.6,805.073 1301.5,800.5 Z"/></g>
<g><path style="opacity:0.994" fill="#fefffe" d="M 2068.5,647.5 C 2154.83,647.333 2241.17,647.5 2327.5,648C 2375.78,654.057 2416.62,674.557 2450,709.5C 2477.23,741.527 2490.4,778.693 2489.5,821C 2489.57,843.951 2486.4,866.451 2480,888.5C 2434.5,1057.84 2389,1227.17 2343.5,1396.5C 2238.83,1397.67 2134.17,1397.83 2029.5,1397C 1979.04,1396.06 1932.71,1382.06 1890.5,1355C 1842.85,1317.51 1818.85,1268.18 1818.5,1207C 1819.14,1162.08 1831.31,1120.58 1855,1082.5C 1882.59,1040.91 1917.42,1006.74 1959.5,980C 2014.46,945.013 2074.46,924.346 2139.5,918C 2193.84,917.833 2248.17,917.333 2302.5,916.5C 2308.43,897.099 2313.27,877.432 2317,857.5C 2320.44,827.631 2307.6,809.465 2278.5,803C 2272.16,802.399 2265.83,801.733 2259.5,801C 2182.5,800.5 2105.5,800.333 2028.5,800.5C 2041.68,749.463 2055.01,698.463 2068.5,647.5 Z M 2116.5,1068.5 C 2164.83,1068.5 2213.17,1068.5 2261.5,1068.5C 2246.17,1126.83 2230.83,1185.17 2215.5,1243.5C 2164.17,1243.67 2112.83,1243.5 2061.5,1243C 2019.63,1235.78 2000.46,1210.94 2004,1168.5C 2012.24,1132.86 2032.07,1105.69 2063.5,1087C 2080.21,1077.71 2097.88,1071.54 2116.5,1068.5 Z"/></g>
<g><path style="opacity:0.993" fill="#fefffe" d="M 2778.5,647.5 C 2860.5,647.333 2942.5,647.5 3024.5,648C 3010.53,698.739 2996.87,749.573 2983.5,800.5C 2905.14,800.021 2826.81,800.521 2748.5,802C 2718.7,807.97 2700.7,825.803 2694.5,855.5C 2695.47,864.096 2698.63,871.763 2704,878.5C 2718.91,893.869 2735.74,906.702 2754.5,917C 2785.49,933.493 2816.16,950.493 2846.5,968C 2874.25,984.071 2898.75,1004.24 2920,1028.5C 2951.99,1070.78 2962.99,1118.11 2953,1170.5C 2942.82,1224.18 2920.82,1272.18 2887,1314.5C 2844.34,1360.75 2791.51,1387.25 2728.5,1394C 2715.55,1395.6 2702.55,1396.6 2689.5,1397C 2601.5,1397.83 2513.5,1397.67 2425.5,1396.5C 2439.64,1345.62 2453.3,1294.62 2466.5,1243.5C 2548.5,1243.67 2630.5,1243.5 2712.5,1243C 2732.34,1242.21 2750.34,1236.21 2766.5,1225C 2797,1190.66 2794.33,1159.33 2758.5,1131C 2751.83,1126.33 2745.17,1121.67 2738.5,1117C 2713.32,1101.91 2687.65,1087.57 2661.5,1074C 2629.06,1056.19 2599.56,1034.36 2573,1008.5C 2532.38,965.029 2518.38,914.029 2531,855.5C 2550.5,768.353 2601,706.853 2682.5,671C 2713.39,658.111 2745.39,650.278 2778.5,647.5 Z"/></g>
<g><path style="opacity:0.993" fill="#fefffe" d="M 3141.5,647.5 C 3196.83,647.5 3252.17,647.5 3307.5,647.5C 3242.98,896.9 3178.15,1146.23 3113,1395.5C 3057.72,1397.49 3002.22,1398.16 2946.5,1397.5C 3011.5,1147.5 3076.5,897.5 3141.5,647.5 Z"/></g>
<g><path style="opacity:0.993" fill="#fefffe" d="M 3713.5,647.5 C 3757.17,647.5 3800.83,647.5 3844.5,647.5C 3831.38,698.495 3817.71,749.328 3803.5,800C 3768.83,800.333 3734.17,800.667 3699.5,801C 3602.81,808.491 3524.97,850.324 3466,926.5C 3425.01,982.441 3406.68,1045.11 3411,1114.5C 3421.7,1181.87 3460.2,1223.7 3526.5,1240C 3532.78,1241.32 3539.12,1242.32 3545.5,1243C 3597.17,1243.5 3648.83,1243.67 3700.5,1243.5C 3687.22,1294.78 3673.55,1345.95 3659.5,1397C 3602.49,1397.93 3545.49,1397.59 3488.5,1396C 3432.95,1392.04 3382.62,1374.04 3337.5,1342C 3291.17,1305.56 3261.34,1258.39 3248,1200.5C 3235.56,1137.45 3238.56,1075.12 3257,1013.5C 3286.86,909.878 3342.69,823.378 3424.5,754C 3509.36,688.205 3605.69,652.705 3713.5,647.5 Z"/></g>
<g><path style="opacity:0.993" fill="#fefffe" d="M 4083.5,647.5 C 4165.5,647.167 4247.5,647.5 4329.5,648.5C 4315.99,698.877 4302.32,749.21 4288.5,799.5C 4210.14,800.02 4131.81,800.854 4053.5,802C 4023.69,807.979 4005.69,825.812 3999.5,855.5C 4000.17,862.343 4002.34,868.677 4006,874.5C 4019.79,890.638 4035.96,903.805 4054.5,914C 4081.83,929 4109.17,944 4136.5,959C 4166.84,975.993 4194.34,996.827 4219,1021.5C 4252.93,1060.86 4266.6,1106.53 4260,1158.5C 4251.25,1216.82 4228.58,1268.82 4192,1314.5C 4151.23,1358.97 4100.73,1385.14 4040.5,1393C 4025.58,1395.16 4010.58,1396.49 3995.5,1397C 3907.5,1397.5 3819.5,1397.67 3731.5,1397.5C 3744.52,1346.1 3757.85,1294.76 3771.5,1243.5C 3853.5,1243.67 3935.5,1243.5 4017.5,1243C 4036.87,1242.41 4054.53,1236.75 4070.5,1226C 4085.94,1210.36 4093.1,1191.53 4092,1169.5C 4086.54,1153.77 4077.04,1140.93 4063.5,1131C 4056.01,1125.42 4048.34,1120.09 4040.5,1115C 4014.33,1100.08 3987.99,1085.41 3961.5,1071C 3932.13,1054.64 3905.3,1034.8 3881,1011.5C 3834.29,962.674 3820.63,905.674 3840,840.5C 3862.05,760.444 3911.22,703.944 3987.5,671C 4018.39,658.111 4050.39,650.278 4083.5,647.5 Z"/></g>
<g><path style="opacity:0.918" fill="#fefffe" d="M 4337.5,1246.5 C 4375.13,1244.01 4401.96,1259.68 4418,1293.5C 4430.42,1332.56 4419.92,1363.73 4386.5,1387C 4355.07,1403.02 4325.4,1400.35 4297.5,1379C 4273.86,1355.96 4266.7,1328.46 4276,1296.5C 4287.29,1268.3 4307.79,1251.63 4337.5,1246.5 Z M 4339.5,1257.5 C 4372.26,1256.28 4395.09,1270.62 4408,1300.5C 4416.67,1332.51 4407.5,1358.01 4380.5,1377C 4362.56,1386.32 4343.89,1387.98 4324.5,1382C 4293.62,1367.09 4280.46,1342.59 4285,1308.5C 4292.43,1279.9 4310.6,1262.9 4339.5,1257.5 Z M 4332.5,1290.5 C 4341.64,1290.01 4350.64,1290.84 4359.5,1293C 4364.62,1295.34 4366.95,1299.34 4366.5,1305C 4365.88,1313.62 4361.22,1318.28 4352.5,1319C 4345.84,1319.5 4339.17,1319.67 4332.5,1319.5C 4332.5,1309.83 4332.5,1300.17 4332.5,1290.5 Z"/></g>
<g><path style="opacity:0.923" fill="#fefffe" d="M 4316.5,1279.5 C 4331.87,1279.14 4347.2,1279.64 4362.5,1281C 4372.03,1282.2 4378.2,1287.37 4381,1296.5C 4384.48,1310.72 4379.31,1319.89 4365.5,1324C 4371.97,1326.47 4376.47,1330.97 4379,1337.5C 4380.2,1346.11 4381.03,1354.78 4381.5,1363.5C 4376.57,1363.8 4371.74,1363.47 4367,1362.5C 4366.67,1356.83 4366.33,1351.17 4366,1345.5C 4365,1336.24 4359.83,1331.41 4350.5,1331C 4344.51,1330.5 4338.51,1330.33 4332.5,1330.5C 4332.5,1341.5 4332.5,1352.5 4332.5,1363.5C 4327.17,1363.5 4321.83,1363.5 4316.5,1363.5C 4316.5,1335.5 4316.5,1307.5 4316.5,1279.5 Z M 4332.5,1290.5 C 4332.5,1300.17 4332.5,1309.83 4332.5,1319.5C 4339.17,1319.67 4345.84,1319.5 4352.5,1319C 4361.22,1318.28 4365.88,1313.62 4366.5,1305C 4366.95,1299.34 4364.62,1295.34 4359.5,1293C 4350.64,1290.84 4341.64,1290.01 4332.5,1290.5 Z"/></g>
</svg>
