<?xml version="1.0" encoding="UTF-8"?>
<!DOCTYPE svg PUBLIC "-//W3C//DTD SVG 1.1//EN" "http://www.w3.org/Graphics/SVG/1.1/DTD/svg11.dtd">
<svg xmlns="http://www.w3.org/2000/svg" version="1.1" width="4424px" height="1763px" style="shape-rendering:geometricPrecision; text-rendering:geometricPrecision; image-rendering:optimizeQuality; fill-rule:evenodd; clip-rule:evenodd" xmlns:xlink="http://www.w3.org/1999/xlink">
<g><path style="opacity:0.992" fill="#fefffe" d="M 3071.5,551.5 C 3106.83,551.5 3142.17,551.5 3177.5,551.5C 3177.5,719.167 3177.5,886.833 3177.5,1054.5C 3142.17,1054.5 3106.83,1054.5 3071.5,1054.5C 3071.67,1037.83 3071.5,1021.16 3071,1004.5C 3047.19,1032.82 3016.69,1048.66 2979.5,1052C 2896.41,1063.2 2834.24,1032.7 2793,960.5C 2774.23,918.997 2768.23,875.664 2775,830.5C 2783.11,777.109 2808.61,734.276 2851.5,702C 2882.58,682.938 2916.41,673.771 2953,674.5C 3000.21,671.777 3039.54,687.777 3071,722.5C 3071.5,665.501 3071.67,608.501 3071.5,551.5 Z M 2949.5,748.5 C 3007.97,745.816 3042.81,773.149 3054,830.5C 3058.04,855.385 3057.04,880.052 3051,904.5C 3033.73,956.241 2997.89,978.074 2943.5,970C 2918.69,965.527 2900.19,952.36 2888,930.5C 2873.57,899.988 2868.9,867.988 2874,834.5C 2877.23,806.549 2889.06,783.049 2909.5,764C 2921.74,755.759 2935.07,750.592 2949.5,748.5 Z"/></g>
<g><path style="opacity:0.986" fill="#fefffe" d="M 3617.5,551.5 C 3653.17,551.5 3688.83,551.5 3724.5,551.5C 3724.5,719.167 3724.5,886.833 3724.5,1054.5C 3688.83,1054.5 3653.17,1054.5 3617.5,1054.5C 3617.5,886.833 3617.5,719.167 3617.5,551.5 Z"/></g>
<g><path style="opacity:0.988" fill="#fefffe" d="M 453.5,674.5 C 488.375,672.609 522.375,677.109 555.5,688C 578.247,696.449 598.08,709.282 615,726.5C 631.94,748.141 641.107,772.808 642.5,800.5C 607.165,800.667 571.832,800.5 536.5,800C 526.885,769.079 505.718,753.913 473,754.5C 439.908,754.868 416.908,770.202 404,800.5C 392.661,836.96 390.661,873.96 398,911.5C 409.939,960.903 441.105,981.403 491.5,973C 504.367,970.818 514.867,964.652 523,954.5C 532.347,941.797 538.18,927.63 540.5,912C 574.484,910.653 608.484,910.153 642.5,910.5C 635.76,962.497 610.427,1002.66 566.5,1031C 535.638,1047.67 502.638,1055.51 467.5,1054.5C 364.972,1055.45 305.805,1005.45 290,904.5C 284.569,861.473 288.903,819.473 303,778.5C 323.258,729.578 358.758,697.412 409.5,682C 424.109,678.288 438.776,675.788 453.5,674.5 Z"/></g>
<g><path style="opacity:0.99" fill="#fefffe" d="M 844.5,674.5 C 886.573,672.23 927.573,677.73 967.5,691C 986.35,697.002 1002.52,707.169 1016,721.5C 1027.26,736.935 1033.59,754.268 1035,773.5C 1035.5,867.166 1035.67,960.833 1035.5,1054.5C 1000.17,1054.5 964.833,1054.5 929.5,1054.5C 929.667,1038.16 929.5,1021.83 929,1005.5C 879.291,1050.3 821.791,1064.47 756.5,1048C 701.614,1031.1 675.781,993.936 679,936.5C 681.977,898.346 700.143,870.179 733.5,852C 758.32,840.627 784.32,833.294 811.5,830C 839.613,827.136 867.613,823.469 895.5,819C 907.843,817.25 918.01,811.75 926,802.5C 934.334,781.513 928.168,766.346 907.5,757C 893.317,752.748 878.817,750.915 864,751.5C 845.312,749.798 828.145,753.964 812.5,764C 802.366,774.102 796.366,786.269 794.5,800.5C 760.167,800.5 725.833,800.5 691.5,800.5C 695.441,739.407 726.775,700.573 785.5,684C 805.033,679.093 824.7,675.926 844.5,674.5 Z M 920.5,869.5 C 930.764,930.441 905.764,968.275 845.5,983C 828.157,987.132 811.157,986.132 794.5,980C 779.366,973.521 771.199,962.021 770,945.5C 768.242,927.069 775.076,912.902 790.5,903C 797.842,899.162 805.508,896.162 813.5,894C 836.749,889.236 860.082,884.903 883.5,881C 896.092,877.609 908.425,873.775 920.5,869.5 Z"/></g>
<g><path style="opacity:0.993" fill="#fefffe" d="M 1083.5,674.5 C 1118.83,674.5 1154.17,674.5 1189.5,674.5C 1189.33,694.836 1189.5,715.169 1190,735.5C 1202.58,718.249 1217.75,703.749 1235.5,692C 1254.87,681.657 1275.54,675.99 1297.5,675C 1329.94,672.471 1361.28,677.138 1391.5,689C 1433.2,707.416 1455.37,739.583 1458,785.5C 1458.5,875.166 1458.67,964.833 1458.5,1054.5C 1421.17,1054.5 1383.83,1054.5 1346.5,1054.5C 1346.67,974.166 1346.5,893.833 1346,813.5C 1344.76,787.131 1331.92,769.297 1307.5,760C 1287.51,754.128 1267.51,754.128 1247.5,760C 1221.74,768.763 1205.24,786.263 1198,812.5C 1195.02,823.636 1193.36,834.969 1193,846.5C 1192.5,915.833 1192.33,985.166 1192.5,1054.5C 1156.17,1054.5 1119.83,1054.5 1083.5,1054.5C 1083.5,927.833 1083.5,801.167 1083.5,674.5 Z"/></g>
<g><path style="opacity:0.988" fill="#fefffe" d="M 1506.5,674.5 C 1541.83,674.5 1577.17,674.5 1612.5,674.5C 1612.33,695.169 1612.5,715.836 1613,736.5C 1625.21,718.623 1640.38,703.789 1658.5,692C 1677.65,682.13 1697.98,676.463 1719.5,675C 1758.72,671.445 1795.72,678.778 1830.5,697C 1859.43,714.662 1875.93,740.495 1880,774.5C 1880.98,782.138 1881.64,789.805 1882,797.5C 1882.5,883.166 1882.67,968.833 1882.5,1054.5C 1844.83,1054.5 1807.17,1054.5 1769.5,1054.5C 1769.3,989.664 1769.63,924.83 1770.5,860C 1770.33,849.167 1770.17,838.333 1770,827.5C 1771.15,780.315 1748.15,756.315 1701,755.5C 1649.63,757.531 1621.63,784.198 1617,835.5C 1616.5,908.499 1616.33,981.499 1616.5,1054.5C 1579.83,1054.5 1543.17,1054.5 1506.5,1054.5C 1506.5,927.833 1506.5,801.167 1506.5,674.5 Z"/></g>
<g><path style="opacity:0.99" fill="#fefffe" d="M 2101.5,674.5 C 2139.8,672.121 2177.14,676.954 2213.5,689C 2245.16,701.001 2270.66,720.834 2290,748.5C 2319.91,792.668 2331.24,841.335 2324,894.5C 2316.66,945.375 2293.16,986.875 2253.5,1019C 2219.32,1041.5 2181.65,1053.17 2140.5,1054C 2097.18,1057.29 2055.51,1050.62 2015.5,1034C 1968.32,1008.46 1937.82,969.629 1924,917.5C 1909.61,857.201 1919.28,801.201 1953,749.5C 1979.82,712.147 2015.99,688.981 2061.5,680C 2074.9,677.534 2088.23,675.7 2101.5,674.5 Z M 2105.5,754.5 C 2172.57,750.066 2209.07,781.399 2215,848.5C 2217.64,875.435 2213.97,901.435 2204,926.5C 2186.98,959.947 2159.48,976.28 2121.5,975.5C 2070.74,973.902 2040.24,948.235 2030,898.5C 2025.38,872.715 2026.05,847.048 2032,821.5C 2042.47,783.517 2066.97,761.184 2105.5,754.5 Z"/></g>
<g><path style="opacity:0.991" fill="#fefffe" d="M 2361.5,674.5 C 2396.83,674.5 2432.17,674.5 2467.5,674.5C 2467.33,695.169 2467.5,715.836 2468,736.5C 2492.9,697.989 2528.4,677.489 2574.5,675C 2607.29,672.304 2638.96,676.97 2669.5,689C 2710.45,707.008 2732.62,738.508 2736,783.5C 2736.5,873.833 2736.67,964.166 2736.5,1054.5C 2699.17,1054.5 2661.83,1054.5 2624.5,1054.5C 2624.67,973.833 2624.5,893.166 2624,812.5C 2622.55,786.418 2609.72,768.918 2585.5,760C 2565.51,754.163 2545.51,754.163 2525.5,760C 2499.74,768.763 2483.24,786.263 2476,812.5C 2472.84,824.63 2471.17,836.963 2471,849.5C 2470.5,917.833 2470.33,986.166 2470.5,1054.5C 2434.17,1054.5 2397.83,1054.5 2361.5,1054.5C 2361.5,927.833 2361.5,801.167 2361.5,674.5 Z"/></g>
<g><path style="opacity:0.989" fill="#fefffe" d="M 3378.5,674.5 C 3416.56,672.414 3453.89,676.58 3490.5,687C 3513.59,692.624 3533.43,703.79 3550,720.5C 3562.39,736.67 3569.06,755.003 3570,775.5C 3570.5,868.499 3570.67,961.499 3570.5,1054.5C 3534.83,1054.5 3499.17,1054.5 3463.5,1054.5C 3463.45,1038.14 3463.61,1021.81 3464,1005.5C 3418.29,1047.31 3364.79,1062.48 3303.5,1051C 3236.68,1035.53 3207.18,993.693 3215,925.5C 3222.65,885.841 3245.49,859.008 3283.5,845C 3306.24,837.118 3329.57,831.785 3353.5,829C 3373.51,826.74 3393.51,824.406 3413.5,822C 3427.69,820.788 3441.02,816.788 3453.5,810C 3463.34,802.484 3466.84,792.651 3464,780.5C 3461.06,768.893 3453.9,761.06 3442.5,757C 3414.78,748.903 3387.11,748.903 3359.5,757C 3349.83,761.002 3342.33,767.502 3337,776.5C 3333.37,784.067 3330.53,791.9 3328.5,800C 3294.5,800.5 3260.5,800.667 3226.5,800.5C 3230.04,741.209 3260.04,702.709 3316.5,685C 3336.96,679.424 3357.63,675.924 3378.5,674.5 Z M 3454.5,869.5 C 3455.5,869.5 3456.5,869.5 3457.5,869.5C 3465.62,928.502 3441.28,966.002 3384.5,982C 3365.9,987.311 3347.57,986.644 3329.5,980C 3312.49,972.497 3304.15,959.331 3304.5,940.5C 3304.64,924.049 3311.64,911.549 3325.5,903C 3331.49,899.506 3337.82,896.839 3344.5,895C 3368.68,889.58 3393.02,884.914 3417.5,881C 3430.2,877.916 3442.53,874.083 3454.5,869.5 Z"/></g>
<g><path style="opacity:0.99" fill="#fefffe" d="M 3920.5,674.5 C 3961.14,671.394 3999.47,679.227 4035.5,698C 4080.75,727.945 4106.58,770.112 4113,824.5C 4114.85,846.126 4115.69,867.793 4115.5,889.5C 4028.83,889.5 3942.17,889.5 3855.5,889.5C 3855.42,915.773 3864.42,938.273 3882.5,957C 3908.99,976.631 3938.33,982.298 3970.5,974C 3990.18,968.156 4004.51,955.99 4013.5,937.5C 4045.83,936.5 4078.16,936.167 4110.5,936.5C 4107.55,956.386 4099.72,974.053 4087,989.5C 4059.1,1025 4022.6,1045.83 3977.5,1052C 3914.9,1061.77 3859.23,1046.77 3810.5,1007C 3784.36,981.329 3768.86,950.163 3764,913.5C 3757.89,873.071 3759.89,833.071 3770,793.5C 3788.19,733.976 3827.36,696.143 3887.5,680C 3898.57,677.731 3909.57,675.897 3920.5,674.5 Z M 3927.5,752.5 C 3957.42,749.74 3982.25,759.407 4002,781.5C 4011.45,795.342 4016.61,810.675 4017.5,827.5C 3964.17,827.667 3910.83,827.5 3857.5,827C 3860.77,801.776 3872.11,781.109 3891.5,765C 3902.74,758.31 3914.74,754.144 3927.5,752.5 Z"/></g>
<g><path style="opacity:0.859" fill="#fefffe" d="M 4104.5,674.5 C 4122.67,672.84 4133,681.007 4135.5,699C 4132.27,717.537 4121.27,725.204 4102.5,722C 4086.19,714.292 4081.69,702.126 4089,685.5C 4092.95,680.033 4098.12,676.366 4104.5,674.5 Z M 4122.5,711.5 C 4116.71,716.657 4110.04,717.824 4102.5,715C 4092.11,707.815 4089.94,698.648 4096,687.5C 4104.4,679.027 4113.4,678.36 4123,685.5C 4130.32,694.51 4130.16,703.176 4122.5,711.5 Z M 4107.5,691.5 C 4116.14,692.447 4116.48,694.447 4108.5,697.5C 4107.53,695.604 4107.2,693.604 4107.5,691.5 Z"/></g>
<g><path style="opacity:0.841" fill="#fefffe" d="M 4122.5,711.5 C 4120.14,711.663 4117.81,711.497 4115.5,711C 4114.29,708.649 4113.45,706.149 4113,703.5C 4111.56,702.74 4110.06,702.074 4108.5,701.5C 4107.51,704.768 4107.18,708.102 4107.5,711.5C 4105.17,711.5 4102.83,711.5 4100.5,711.5C 4100.5,703.167 4100.5,694.833 4100.5,686.5C 4106.18,686.334 4111.84,686.501 4117.5,687C 4121.39,689.708 4122.22,693.208 4120,697.5C 4119.25,698.126 4118.42,698.626 4117.5,699C 4120,702.796 4121.66,706.963 4122.5,711.5 Z M 4107.5,691.5 C 4107.2,693.604 4107.53,695.604 4108.5,697.5C 4116.48,694.447 4116.14,692.447 4107.5,691.5 Z"/></g>
</svg>
