<?xml version="1.0" encoding="UTF-8"?>
<!DOCTYPE svg PUBLIC "-//W3C//DTD SVG 1.1//EN" "http://www.w3.org/Graphics/SVG/1.1/DTD/svg11.dtd">
<svg xmlns="http://www.w3.org/2000/svg" version="1.1" width="4628px" height="1367px" style="shape-rendering:geometricPrecision; text-rendering:geometricPrecision; image-rendering:optimizeQuality; fill-rule:evenodd; clip-rule:evenodd" xmlns:xlink="http://www.w3.org/1999/xlink">
<g><path style="opacity:0.99" fill="#fefffe" d="M 625.5,332.5 C 636.91,332.914 647.243,336.414 656.5,343C 665.333,351.833 674.167,360.667 683,369.5C 695.896,389.396 695.562,409.063 682,428.5C 642.472,468.361 602.639,507.861 562.5,547C 546.207,556.181 529.541,556.848 512.5,549C 501.063,539.566 490.23,529.399 480,518.5C 467.067,498.582 467.4,478.915 481,459.5C 519.5,421 558,382.5 596.5,344C 605.131,337.344 614.798,333.51 625.5,332.5 Z"/></g>
<g><path style="opacity:0.987" fill="#fefffe" d="M 1377.5,375.5 C 1432.28,375.73 1485.61,384.563 1537.5,402C 1548.46,406.428 1559.12,411.428 1569.5,417C 1571.13,417.494 1572.8,417.66 1574.5,417.5C 1575.12,459.833 1575.29,502.166 1575,544.5C 1575.08,550.627 1573.92,556.461 1571.5,562C 1560.17,562.833 1548.83,563.667 1537.5,564.5C 1535.83,564.167 1534.17,563.833 1532.5,563.5C 1528.93,534.294 1520.43,506.627 1507,480.5C 1482.72,443.26 1448.22,422.76 1403.5,419C 1325.55,411.514 1263.38,439.014 1217,501.5C 1189.49,540.353 1174.49,583.686 1172,631.5C 1169.87,674.138 1175.2,715.805 1188,756.5C 1212.61,818.446 1255.11,863.613 1315.5,892C 1354.83,905.644 1394.83,908.311 1435.5,900C 1484.17,880.828 1526.17,851.994 1561.5,813.5C 1566.99,821.797 1572.49,830.13 1578,838.5C 1578.29,844.676 1577.29,850.676 1575,856.5C 1568.11,879.185 1559.28,901.018 1548.5,922C 1452.32,960.907 1353.99,967.574 1253.5,942C 1197.48,928.215 1149.64,900.715 1110,859.5C 1069.47,813.292 1046.8,759.292 1042,697.5C 1037.03,609.057 1065.19,533.224 1126.5,470C 1164.38,434.712 1208.38,409.712 1258.5,395C 1297.57,383.969 1337.24,377.469 1377.5,375.5 Z"/></g>
<g><path style="opacity:0.989" fill="#fefffe" d="M 3317.5,378.5 C 3322.73,379.862 3327.56,382.196 3332,385.5C 3332.17,459.836 3332.67,534.169 3333.5,608.5C 3369.21,587.654 3407.71,575.987 3449,573.5C 3495.15,574.743 3532.82,593.077 3562,628.5C 3600.28,675.201 3612.61,728.201 3599,787.5C 3581.33,862.017 3536.83,913.183 3465.5,941C 3402.1,961.665 3338.77,961.332 3275.5,940C 3261.91,935.119 3248.74,929.286 3236,922.5C 3235.67,774.5 3235.33,626.5 3235,478.5C 3234.13,466.546 3230.46,455.546 3224,445.5C 3215.95,437.445 3207.28,430.112 3198,423.5C 3197.5,416.508 3197.33,409.508 3197.5,402.5C 3237.69,394.861 3277.69,386.861 3317.5,378.5 Z M 3385.5,636.5 C 3442.64,635.154 3481.47,661.154 3502,714.5C 3518.62,774.39 3508.62,829.39 3472,879.5C 3453.38,900.476 3430.05,912.142 3402,914.5C 3380.32,913.499 3363.32,904.166 3351,886.5C 3339.41,866.803 3333.41,845.47 3333,822.5C 3332.5,766.834 3332.33,711.168 3332.5,655.5C 3349.44,646.966 3367.1,640.633 3385.5,636.5 Z"/></g>
<g><path style="opacity:0.992" fill="#fefffe" d="M 2125.5,381.5 C 2131.81,381.429 2137.48,383.429 2142.5,387.5C 2143.33,552.166 2143.83,716.832 2144,881.5C 2145.59,903.407 2156.42,918.407 2176.5,926.5C 2177.5,936.478 2177.83,946.478 2177.5,956.5C 2133.84,955.438 2090.17,954.438 2046.5,953.5C 2046.67,796.833 2046.5,640.166 2046,483.5C 2045.58,467.556 2040.08,453.723 2029.5,442C 2022.98,436.642 2016.31,431.475 2009.5,426.5C 2008.5,419.197 2008.17,411.863 2008.5,404.5C 2047.74,397.451 2086.74,389.784 2125.5,381.5 Z"/></g>
<g><path style="opacity:0.983" fill="#fefffe" d="M 3689.5,405.5 C 3720.92,402.775 3741.08,416.441 3750,446.5C 3753.54,477.594 3740.38,497.427 3710.5,506C 3688.8,509.551 3671.3,502.718 3658,485.5C 3644.71,463.815 3645.71,442.815 3661,422.5C 3668.8,413.854 3678.3,408.187 3689.5,405.5 Z"/></g>
<g><path style="opacity:0.99" fill="#fefffe" d="M 713.5,429.5 C 727.838,427.502 740.838,430.668 752.5,439C 761.333,447.833 770.167,456.667 779,465.5C 791.662,484.79 791.662,504.123 779,523.5C 739.833,562.667 700.667,601.833 661.5,641C 641.821,654.997 622.154,654.997 602.5,641C 592.636,631.47 583.136,621.637 574,611.5C 563.044,591.592 564.378,572.592 578,554.5C 616.167,516.333 654.333,478.167 692.5,440C 699.045,435.394 706.045,431.894 713.5,429.5 Z"/></g>
<g><path style="opacity:0.986" fill="#fefffe" d="M 819.5,522.5 C 834.006,521.946 846.673,526.446 857.5,536C 894.333,572.833 931.167,609.667 968,646.5C 981.055,662.02 984.055,679.353 977,698.5C 975,701.833 973,705.167 971,708.5C 960.77,719.399 949.937,729.566 938.5,739C 920.358,747.401 903.025,746.067 886.5,735C 845.304,695.471 805.137,654.971 766,613.5C 756,596.5 756,579.5 766,562.5C 776.167,551 787,540.167 798.5,530C 805.162,526.171 812.162,523.671 819.5,522.5 Z"/></g>
<g><path style="opacity:0.988" fill="#fefffe" d="M 428.5,525.5 C 442.49,523.664 455.157,526.831 466.5,535C 507.028,575.194 547.195,615.694 587,656.5C 597.543,676.026 596.21,694.692 583,712.5C 573.436,722.734 563.269,732.234 552.5,741C 534.572,750.259 517.239,749.259 500.5,738C 461.361,699.861 422.528,661.361 384,622.5C 372.782,608.954 369.449,593.62 374,576.5C 376.305,569.887 379.638,563.887 384,558.5C 392.898,548.932 402.398,540.099 412.5,532C 417.744,529.315 423.077,527.148 428.5,525.5 Z"/></g>
<g><path style="opacity:0.988" fill="#fefffe" d="M 1784.5,568.5 C 1825.55,565.814 1864.88,572.648 1902.5,589C 1959.71,618.934 1992.88,666.101 2002,730.5C 2011.44,799.189 1992.27,858.356 1944.5,908C 1903.36,942.551 1855.69,959.384 1801.5,958.5C 1749.57,959.782 1703.24,944.615 1662.5,913C 1619.75,872.97 1598.75,823.47 1599.5,764.5C 1601.76,680.437 1640.76,620.604 1716.5,585C 1738.51,576.236 1761.18,570.736 1784.5,568.5 Z M 1796.5,607.5 C 1829.57,606.947 1854.74,620.613 1872,648.5C 1885.89,674.036 1893.89,701.37 1896,730.5C 1899.04,765.732 1897.38,800.732 1891,835.5C 1875.99,900.445 1835.82,925.279 1770.5,910C 1744.96,900.793 1727.79,883.293 1719,857.5C 1709.7,827.215 1705.54,796.215 1706.5,764.5C 1705.73,733.37 1710.23,703.036 1720,673.5C 1727.1,651.434 1739.93,633.601 1758.5,620C 1770.31,612.895 1782.98,608.729 1796.5,607.5 Z"/></g>
<g><path style="opacity:0.989" fill="#fefffe" d="M 3736.5,570.5 C 3741.3,572.149 3745.8,574.482 3750,577.5C 3750.02,679.19 3750.68,780.856 3752,882.5C 3754.65,905.314 3767.15,918.981 3789.5,923.5C 3789.5,932.833 3789.5,942.167 3789.5,951.5C 3744.15,950.69 3698.81,949.69 3653.5,948.5C 3653.67,856.166 3653.5,763.833 3653,671.5C 3652.23,655.163 3646.06,641.329 3634.5,630C 3628.33,625.167 3622.17,620.333 3616,615.5C 3615.5,608.508 3615.33,601.508 3615.5,594.5C 3656.05,586.989 3696.39,578.989 3736.5,570.5 Z"/></g>
<g><path style="opacity:0.988" fill="#fefffe" d="M 2311.5,573.5 C 2316.65,573.073 2321.32,574.407 2325.5,577.5C 2326.33,664.498 2326.83,751.498 2327,838.5C 2328.78,859.58 2337.95,876.413 2354.5,889C 2368.99,895.802 2383.99,897.136 2399.5,893C 2421.59,886.542 2441.42,876.042 2459,861.5C 2459.67,798.833 2459.67,736.167 2459,673.5C 2458.15,658.266 2452.65,645.1 2442.5,634C 2435.98,628.642 2429.31,623.475 2422.5,618.5C 2421.34,611.524 2421.17,604.524 2422,597.5C 2461.08,589.418 2500.24,581.585 2539.5,574C 2544.65,573.067 2549.32,574.234 2553.5,577.5C 2554.33,677.832 2554.83,778.165 2555,878.5C 2556.29,892.389 2561.79,904.223 2571.5,914C 2578.53,919.622 2586.53,922.122 2595.5,921.5C 2595.5,930.5 2595.5,939.5 2595.5,948.5C 2550.17,948.5 2504.83,948.5 2459.5,948.5C 2459.83,935.483 2459.5,922.483 2458.5,909.5C 2425.42,932.476 2389.09,947.976 2349.5,956C 2276.88,964.369 2237.71,932.202 2232,859.5C 2231.4,795.824 2231.4,732.158 2232,668.5C 2230.52,657.73 2226.52,648.063 2220,639.5C 2211.29,631.788 2202.29,624.455 2193,617.5C 2192.17,610.808 2192.34,604.142 2193.5,597.5C 2232.98,589.605 2272.31,581.605 2311.5,573.5 Z"/></g>
<g><path style="opacity:0.992" fill="#fefffe" d="M 2734.5,573.5 C 2740.65,574.119 2746.15,576.452 2751,580.5C 2751.33,592.167 2751.67,603.833 2752,615.5C 2785.39,584.591 2824.89,570.757 2870.5,574C 2904.22,579.177 2928.55,597.01 2943.5,627.5C 2963.48,607.837 2986.48,592.67 3012.5,582C 3041.99,571.583 3071.66,570.916 3101.5,580C 3126.6,591.767 3144.1,610.601 3154,636.5C 3159.38,650.36 3162.71,664.693 3164,679.5C 3164.33,743.5 3164.67,807.5 3165,871.5C 3166,884.841 3170,897.174 3177,908.5C 3182.37,914.874 3189.03,919.207 3197,921.5C 3197.33,920.833 3197.67,920.167 3198,919.5C 3198.5,928.494 3198.67,937.494 3198.5,946.5C 3154.17,946.5 3109.83,946.5 3065.5,946.5C 3065.94,864.488 3065.44,782.488 3064,700.5C 3063.32,682.446 3058.32,665.779 3049,650.5C 3038.71,639.342 3025.88,634.342 3010.5,635.5C 2990.15,635.781 2972.15,642.281 2956.5,655C 2954.88,656.117 2953.88,657.617 2953.5,659.5C 2954.16,662.806 2954.66,666.139 2955,669.5C 2955.03,737.857 2955.69,806.191 2957,874.5C 2958.1,885.464 2961.77,895.464 2968,904.5C 2975.71,912.688 2985.21,917.355 2996.5,918.5C 2996.5,927.833 2996.5,937.167 2996.5,946.5C 2952.17,946.5 2907.83,946.5 2863.5,946.5C 2863.67,868.499 2863.5,790.499 2863,712.5C 2863.13,692.129 2858.79,672.796 2850,654.5C 2840.9,640.734 2828.06,634.734 2811.5,636.5C 2789.21,636.651 2769.38,643.651 2752,657.5C 2751.02,733.524 2751.36,809.524 2753,885.5C 2754.79,897.264 2760.29,906.764 2769.5,914C 2775.81,917.035 2782.31,919.535 2789,921.5C 2789.5,930.494 2789.67,939.494 2789.5,948.5C 2744.5,948.5 2699.5,948.5 2654.5,948.5C 2654.97,855.149 2654.47,761.815 2653,668.5C 2651.61,656.308 2647.11,645.475 2639.5,636C 2631.39,630.195 2623.56,624.028 2616,617.5C 2615.33,610.833 2615.33,604.167 2616,597.5C 2655.63,589.674 2695.13,581.674 2734.5,573.5 Z"/></g>
<g><path style="opacity:0.985" fill="#fefffe" d="M 3994.5,575.5 C 4031.52,574.769 4060.02,589.769 4080,620.5C 4092.67,643.863 4099.01,668.863 4099,695.5C 4099.33,757.833 4099.67,820.167 4100,882.5C 4101.19,891.429 4104.69,899.263 4110.5,906C 4113.71,907.092 4116.88,908.259 4120,909.5C 4120.51,917.18 4121.18,924.847 4122,932.5C 4122.31,933.766 4122.81,934.933 4123.5,936C 4086.44,943.677 4049.11,950.343 4011.5,956C 3978.55,960.404 3945.55,961.071 3912.5,958C 3891.12,955.872 3871.12,949.539 3852.5,939C 3831,923.793 3819.17,902.959 3817,876.5C 3815.56,853.144 3818.89,830.478 3827,808.5C 3828.21,806.951 3829.71,805.785 3831.5,805C 3888.95,780.108 3946.28,754.942 4003.5,729.5C 4005.68,706.25 4004.18,683.25 3999,660.5C 3992.67,636.409 3977.17,626.576 3952.5,631C 3927.96,632.871 3912.46,645.704 3906,669.5C 3904.62,682.454 3904.12,695.454 3904.5,708.5C 3875.83,708.667 3847.16,708.5 3818.5,708C 3814.63,703.093 3811.13,697.926 3808,692.5C 3807.33,689.5 3807.33,686.5 3808,683.5C 3839.34,651.49 3874.17,623.99 3912.5,601C 3937.97,586.118 3965.31,577.618 3994.5,575.5 Z M 4005.5,769.5 C 4006.66,812.998 4006.83,856.665 4006,900.5C 3989.62,912.073 3971.45,916.906 3951.5,915C 3930.25,910.421 3916.75,897.587 3911,876.5C 3906.08,856.32 3908.25,836.987 3917.5,818.5C 3947.22,802.646 3976.55,786.313 4005.5,769.5 Z"/></g>
<g><path style="opacity:0.986" fill="#fefffe" d="M 716.5,621.5 C 732.411,619.528 746.411,623.695 758.5,634C 795.667,671.167 832.833,708.333 870,745.5C 885.361,765.133 886.361,785.466 873,806.5C 863.137,816.697 852.971,826.53 842.5,836C 824.074,846.445 806.074,845.779 788.5,834C 750.028,796.528 711.861,758.695 674,720.5C 657.548,700.48 656.214,679.48 670,657.5C 678.833,648.667 687.667,639.833 696.5,631C 702.74,626.763 709.407,623.596 716.5,621.5 Z"/></g>
<g><path style="opacity:0.99" fill="#fefffe" d="M 335.5,623.5 C 349.389,622.552 361.722,626.385 372.5,635C 410.667,673.167 448.833,711.333 487,749.5C 498.217,764.852 500.55,781.518 494,799.5C 492,802.833 490,806.167 488,809.5C 477.77,820.399 466.937,830.566 455.5,840C 437.403,848.369 420.07,847.036 403.5,836C 364.333,796.833 325.167,757.667 286,718.5C 272,698.833 272,679.167 286,659.5C 294.5,651 303,642.5 311.5,634C 318.752,628.535 326.752,625.035 335.5,623.5 Z"/></g>
<g><path style="opacity:0.985" fill="#fefffe" d="M 620.5,712.5 C 634.779,711.206 647.446,715.039 658.5,724C 666,731.5 673.5,739 681,746.5C 696.604,768.096 696.271,789.43 680,810.5C 642.833,847.667 605.667,884.833 568.5,922C 547.424,938.271 526.091,938.605 504.5,923C 494.599,913.769 485.433,903.936 477,893.5C 466.588,872.568 468.921,853.234 484,835.5C 520.5,799 557,762.5 593.5,726C 601.513,719.327 610.513,714.827 620.5,712.5 Z"/></g>
<g><path style="opacity:0.988" fill="#fefffe" d="M 716.5,808.5 C 730.738,807.389 743.405,811.223 754.5,820C 762,827.5 769.5,835 777,842.5C 792.333,863.5 792.333,884.5 777,905.5C 740.135,943.364 703.635,981.53 667.5,1020C 646.606,1036.62 625.272,1037.29 603.5,1022C 593.599,1012.77 584.433,1002.94 576,992.5C 568.961,979.084 567.628,965.084 572,950.5C 574.542,944.635 577.875,939.301 582,934.5C 619.5,895.667 657,856.833 694.5,818C 701.336,813.409 708.669,810.242 716.5,808.5 Z"/></g>
</svg>
