<?xml version="1.0" encoding="UTF-8"?>
<!DOCTYPE svg PUBLIC "-//W3C//DTD SVG 1.1//EN" "http://www.w3.org/Graphics/SVG/1.1/DTD/svg11.dtd">
<svg xmlns="http://www.w3.org/2000/svg" version="1.1" width="5000px" height="2171px" style="shape-rendering:geometricPrecision; text-rendering:geometricPrecision; image-rendering:optimizeQuality; fill-rule:evenodd; clip-rule:evenodd" xmlns:xlink="http://www.w3.org/1999/xlink">
<g><path style="opacity:0.997" fill="#fefffe" d="M 1959.5,433.5 C 2013.6,426.603 2061.93,439.769 2104.5,473C 2141.64,506.118 2161.47,547.618 2164,597.5C 2165.15,879.167 2166.31,1160.83 2167.5,1442.5C 2167.64,1480.52 2167.14,1518.52 2166,1556.5C 2152.05,1629.11 2109.55,1675.61 2038.5,1696C 2030.25,1697.87 2021.92,1699.21 2013.5,1700C 1963.94,1706.69 1918.94,1695.69 1878.5,1667C 1839.48,1634.8 1817.98,1593.3 1814,1542.5C 1812.64,1229.83 1811.14,917.16 1809.5,604.5C 1811.04,535.865 1841.38,484.698 1900.5,451C 1919.32,441.884 1938.99,436.05 1959.5,433.5 Z"/></g>
<g><path style="opacity:0.997" fill="#fefffe" d="M 2453.5,434.5 C 2470.5,434.333 2487.5,434.5 2504.5,435C 2555.59,440.451 2596.42,463.617 2627,504.5C 2643.9,528.863 2653.9,555.863 2657,585.5C 2657.33,821.833 2657.67,1058.17 2658,1294.5C 2661.6,1314.77 2673.43,1327.27 2693.5,1332C 2810.5,1332.67 2927.5,1332.67 3044.5,1332C 3076.75,1329.63 3103.58,1316.46 3125,1292.5C 3131.72,1284.11 3138.05,1275.45 3144,1266.5C 3289.67,1024.83 3435.33,783.167 3581,541.5C 3634.48,460.52 3709.65,427.02 3806.5,441C 3856.37,450.336 3896.87,474.836 3928,514.5C 3934.58,523.325 3940.91,532.325 3947,541.5C 4088.4,771.236 4229.4,1001.24 4370,1231.5C 4384.46,1255.76 4396.8,1281.09 4407,1307.5C 4418.74,1342.69 4424.24,1378.85 4423.5,1416C 4421.16,1497.01 4390.16,1564.67 4330.5,1619C 4288.88,1656.47 4240.22,1679.47 4184.5,1688C 4002.85,1689.65 3821.18,1689.99 3639.5,1689C 3585.86,1685.27 3543.03,1662.11 3511,1619.5C 3489.54,1585.21 3481.21,1547.88 3486,1507.5C 3494.19,1439 3530.02,1391.5 3593.5,1365C 3608.05,1359.61 3623.05,1356.28 3638.5,1355C 3750.5,1354.67 3862.5,1354.33 3974.5,1354C 3996.92,1351.91 4006.08,1339.74 4002,1317.5C 4000.11,1312.61 3997.77,1307.94 3995,1303.5C 3919.75,1183.33 3844.75,1063 3770,942.5C 3767.39,938.711 3763.89,936.378 3759.5,935.5C 3753.33,937.501 3748.83,941.501 3746,947.5C 3627.17,1152.49 3507.84,1357.16 3388,1561.5C 3368.24,1592.94 3344.4,1621.11 3316.5,1646C 3286.53,1671.31 3251.86,1685.64 3212.5,1689C 2986.83,1689.67 2761.17,1689.67 2535.5,1689C 2490.03,1684.74 2449.03,1669.07 2412.5,1642C 2362.15,1605.3 2327.65,1557.13 2309,1497.5C 2306.23,1487.65 2304.23,1477.65 2303,1467.5C 2301.34,1173.85 2301.01,880.186 2302,586.5C 2310.51,519.94 2345.34,473.106 2406.5,446C 2421.88,440.404 2437.55,436.57 2453.5,434.5 Z"/></g>
<g><path style="opacity:0.998" fill="#fefffe" d="M 728.5,457.5 C 1003.5,457.333 1278.5,457.5 1553.5,458C 1623.2,466.73 1671.04,503.563 1697,568.5C 1709.89,609.939 1709.56,651.273 1696,692.5C 1671.23,753.595 1626.4,790.095 1561.5,802C 1283.85,803.66 1006.19,803.994 728.5,803C 664.049,794.539 617.883,761.039 590,702.5C 577.076,670.695 572.743,637.695 577,603.5C 586.331,540.324 620.165,495.824 678.5,470C 694.802,463.846 711.468,459.679 728.5,457.5 Z"/></g>
<g><path style="opacity:0.997" fill="#fefffe" d="M 768.5,908.5 C 999.167,908.333 1229.83,908.5 1460.5,909C 1522.59,912.939 1569.42,941.439 1601,994.5C 1620.48,1032.01 1626.82,1071.67 1620,1113.5C 1608.04,1175.79 1572.87,1219.29 1514.5,1244C 1500.26,1249.23 1485.59,1252.56 1470.5,1254C 1304.5,1254.33 1138.5,1254.67 972.5,1255C 950.894,1258.61 937.728,1271.11 933,1292.5C 932.667,1376.83 932.333,1461.17 932,1545.5C 926.313,1605.08 897.813,1649.92 846.5,1680C 817.624,1695.51 786.791,1702.34 754,1700.5C 678.321,1701.74 623.654,1668.74 590,1601.5C 581.55,1581.7 576.883,1561.03 576,1539.5C 575.681,1389.17 576.015,1238.83 577,1088.5C 583.874,1024.2 614.041,974.367 667.5,939C 698.59,920.023 732.257,909.857 768.5,908.5 Z"/></g>
</svg>
