<?xml version="1.0" encoding="UTF-8"?>
<!DOCTYPE svg PUBLIC "-//W3C//DTD SVG 1.1//EN" "http://www.w3.org/Graphics/SVG/1.1/DTD/svg11.dtd">
<svg xmlns="http://www.w3.org/2000/svg" version="1.1" width="4340px" height="1631px" style="shape-rendering:geometricPrecision; text-rendering:geometricPrecision; image-rendering:optimizeQuality; fill-rule:evenodd; clip-rule:evenodd" xmlns:xlink="http://www.w3.org/1999/xlink">
<g><path style="opacity:0.994" fill="#fefffe" d="M 526.5,428.5 C 641.765,425.406 736.932,467.073 812,553.5C 835.019,581.851 853.186,613.185 866.5,647.5C 866.167,647.833 865.833,648.167 865.5,648.5C 830.83,631.499 794.163,621.999 755.5,620C 669.285,614.85 593.285,639.85 527.5,695C 492.983,728.528 456.983,760.194 419.5,790C 389.95,811.773 357.284,827.106 321.5,836C 289.213,841.927 257.547,839.593 226.5,829C 220.261,826.969 214.761,823.802 210,819.5C 189.864,695.684 226.364,592.184 319.5,509C 379.711,459.907 448.711,433.073 526.5,428.5 Z"/></g>
<g><path style="opacity:0.993" fill="#fefffe" d="M 1412.5,539.5 C 1493.46,538.291 1573.12,547.791 1651.5,568C 1684.38,577.888 1709.21,597.721 1726,627.5C 1734.47,651.472 1735.64,675.805 1729.5,700.5C 1653.83,701.605 1578.17,701.605 1502.5,700.5C 1495.52,679.024 1481.52,664.191 1460.5,656C 1410.62,644.256 1361.95,647.922 1314.5,667C 1255.73,695.644 1219.9,742.144 1207,806.5C 1203.03,836.378 1213.53,859.545 1238.5,876C 1266.39,890.577 1296.05,896.577 1327.5,894C 1361.67,891.959 1394.33,883.959 1425.5,870C 1440.04,861.132 1452.37,849.799 1462.5,836C 1434.5,835.667 1406.5,835.333 1378.5,835C 1390.83,804 1403.17,773 1415.5,742C 1515.5,741.167 1615.5,741.333 1715.5,742.5C 1682.26,822.972 1649.59,903.639 1617.5,984.5C 1572.55,965.715 1525.89,959.548 1477.5,966C 1466.45,967.341 1455.45,969.008 1444.5,971C 1407.47,978.872 1370.47,986.872 1333.5,995C 1255.34,1008.39 1177.68,1005.73 1100.5,987C 1000.42,961.83 963.253,898.996 989,798.5C 998.645,766.211 1013.31,736.544 1033,709.5C 1064.56,665.598 1103.39,629.765 1149.5,602C 1215.49,568.334 1285.49,548.668 1359.5,543C 1377.31,541.617 1394.98,540.45 1412.5,539.5 Z"/></g>
<g><path style="opacity:0.993" fill="#fefffe" d="M 1838.5,566.5 C 1908.5,566.5 1978.5,566.5 2048.5,566.5C 1991.3,710.581 1933.8,854.581 1876,998.5C 1806.24,999.498 1736.4,999.831 1666.5,999.5C 1723.83,855.167 1781.17,710.833 1838.5,566.5 Z"/></g>
<g><path style="opacity:0.994" fill="#fefffe" d="M 2301.5,566.5 C 2388.83,567.266 2476.16,567.6 2563.5,567.5C 2578.5,711.505 2593.5,855.505 2608.5,999.5C 2535.83,999.5 2463.17,999.5 2390.5,999.5C 2387.04,982.859 2383.71,966.192 2380.5,949.5C 2304.79,949.83 2229.13,949.497 2153.5,948.5C 2137.64,964.858 2122.31,981.692 2107.5,999C 2034.83,999.667 1962.17,999.667 1889.5,999C 2027.04,854.964 2164.37,710.798 2301.5,566.5 Z M 2374.5,698.5 C 2376.69,743.989 2378.36,789.656 2379.5,835.5C 2339.5,835.667 2299.5,835.5 2259.5,835C 2298.44,789.901 2336.78,744.401 2374.5,698.5 Z"/></g>
<g><path style="opacity:0.995" fill="#fefffe" d="M 2806.5,566.5 C 2888.49,567.29 2970.49,567.79 3052.5,568C 3090.13,644.09 3127.63,720.256 3165,796.5C 3197.7,720.26 3230.54,644.093 3263.5,568C 3327.5,567.167 3391.5,567.333 3455.5,568.5C 3398.5,711.833 3341.5,855.167 3284.5,998.5C 3208.5,999.667 3132.5,999.833 3056.5,999C 3015.62,918.733 2975.12,838.233 2935,757.5C 2899.15,837.879 2863.99,918.546 2829.5,999.5C 2763.5,999.833 2697.5,999.5 2631.5,998.5C 2689.85,854.474 2748.18,710.474 2806.5,566.5 Z"/></g>
<g><path style="opacity:0.992" fill="#fefffe" d="M 3476.5,566.5 C 3668.17,566.333 3859.83,566.5 4051.5,567C 4038.2,605.074 4025.2,643.24 4012.5,681.5C 3949.83,681.5 3887.17,681.5 3824.5,681.5C 3783.13,786.58 3741.46,891.58 3699.5,996.5C 3633.17,997.5 3566.84,997.833 3500.5,997.5C 3541.1,892.045 3582.1,786.711 3623.5,681.5C 3560.17,680.5 3496.84,680.167 3433.5,680.5C 3447.83,642.5 3462.17,604.5 3476.5,566.5 Z"/></g>
<g><path style="opacity:0.977" fill="#fefffe" d="M 766.5,683.5 C 806.224,681.678 843.891,689.511 879.5,707C 880.191,708.067 880.691,709.234 881,710.5C 883.151,733.781 883.984,757.115 883.5,780.5C 856.157,767.217 827.824,756.383 798.5,748C 765.178,738.988 731.511,737.322 697.5,743C 651.164,754.341 608.498,773.508 569.5,800.5C 568.417,799.635 568.251,798.635 569,797.5C 617.575,729.952 683.408,691.952 766.5,683.5 Z"/></g>
<g><path style="opacity:0.992" fill="#fefffe" d="M 752.5,803.5 C 786.163,803.332 817.83,811.166 847.5,827C 853.904,830.735 859.737,835.235 865,840.5C 867.243,843.074 869.076,845.908 870.5,849C 855.665,895.863 831.499,937.03 798,972.5C 729.493,1042.92 645.826,1079.25 547,1081.5C 464.455,1080.21 390.288,1055.04 324.5,1006C 282.631,972.467 250.964,931.133 229.5,882C 229.667,881.5 229.833,881 230,880.5C 319.67,929.69 414.17,941.857 513.5,917C 551.477,905.342 587.477,889.342 621.5,869C 643.833,854.667 666.167,840.333 688.5,826C 708.536,814.379 729.87,806.879 752.5,803.5 Z"/></g>
<g><path style="opacity:0.914" fill="#fefffe" d="M 3857.5,892.5 C 3886.96,891.807 3906.13,905.474 3915,933.5C 3919.03,956.426 3911.86,974.926 3893.5,989C 3872.98,1000.59 3852.64,1000.25 3832.5,988C 3812.28,970.954 3806.44,949.787 3815,924.5C 3823.87,906.662 3838.04,895.995 3857.5,892.5 Z M 3858.5,903.5 C 3886.76,903.457 3902.43,917.457 3905.5,945.5C 3902.57,970.263 3888.74,984.263 3864,987.5C 3838.47,984.636 3824.3,970.469 3821.5,945C 3824.22,922.456 3836.55,908.623 3858.5,903.5 Z M 3853.5,925.5 C 3860.87,925.384 3868.21,925.884 3875.5,927C 3878.68,928.018 3880.02,930.185 3879.5,933.5C 3880.02,936.815 3878.68,938.982 3875.5,940C 3868.24,941.348 3860.91,941.848 3853.5,941.5C 3853.5,936.167 3853.5,930.833 3853.5,925.5 Z"/></g>
<g><path style="opacity:0.934" fill="#fefffe" d="M 3841.5,917.5 C 3854.84,917.333 3868.17,917.5 3881.5,918C 3888.78,921.055 3892.11,926.555 3891.5,934.5C 3891.86,939.248 3890.53,943.415 3887.5,947C 3884.12,948.503 3880.79,950.003 3877.5,951.5C 3882.31,958.791 3886.31,966.457 3889.5,974.5C 3885.15,974.666 3880.82,974.499 3876.5,974C 3872.12,966.738 3868.12,959.238 3864.5,951.5C 3860.89,950.511 3857.23,950.177 3853.5,950.5C 3853.5,958.5 3853.5,966.5 3853.5,974.5C 3849.5,974.5 3845.5,974.5 3841.5,974.5C 3841.5,955.5 3841.5,936.5 3841.5,917.5 Z M 3853.5,925.5 C 3853.5,930.833 3853.5,936.167 3853.5,941.5C 3860.91,941.848 3868.24,941.348 3875.5,940C 3878.68,938.982 3880.02,936.815 3879.5,933.5C 3880.02,930.185 3878.68,928.018 3875.5,927C 3868.21,925.884 3860.87,925.384 3853.5,925.5 Z"/></g>
</svg>
