<?xml version="1.0" encoding="UTF-8"?>
<!DOCTYPE svg PUBLIC "-//W3C//DTD SVG 1.1//EN" "http://www.w3.org/Graphics/SVG/1.1/DTD/svg11.dtd">
<svg xmlns="http://www.w3.org/2000/svg" version="1.1" width="4544px" height="1679px" style="shape-rendering:geometricPrecision; text-rendering:geometricPrecision; image-rendering:optimizeQuality; fill-rule:evenodd; clip-rule:evenodd" xmlns:xlink="http://www.w3.org/1999/xlink">
<g><path style="opacity:0.994" fill="#fefffe" d="M 3277.5,401.5 C 3281.18,401.335 3284.85,401.501 3288.5,402C 3329.79,411.925 3371.46,419.925 3413.5,426C 3452.78,431.253 3492.11,435.919 3531.5,440C 3571.45,450.543 3601.61,473.71 3622,509.5C 3627.21,519.259 3631.88,529.259 3636,539.5C 3654.97,596.084 3671.31,653.417 3685,711.5C 3702.05,781.986 3704.71,852.986 3693,924.5C 3678.57,1000.79 3658.24,1075.45 3632,1148.5C 3615.39,1189.45 3586.55,1217.95 3545.5,1234C 3540.83,1235.33 3536.17,1236.67 3531.5,1238C 3447.77,1245.15 3364.94,1257.98 3283,1276.5C 3272.98,1275.98 3267.81,1270.64 3267.5,1260.5C 3267.3,1257.21 3268.13,1254.21 3270,1251.5C 3320.29,1214.23 3360.95,1168.56 3392,1114.5C 3451.15,1010.09 3474.48,898.09 3462,778.5C 3448.41,653.163 3397.24,546.33 3308.5,458C 3295.96,447.122 3283.12,436.622 3270,426.5C 3265.02,415.82 3267.52,407.487 3277.5,401.5 Z"/></g>
<g><path style="opacity:0.995" fill="#fefffe" d="M 4173.5,401.5 C 4190.97,400.791 4197.47,408.791 4193,425.5C 4141.69,464.468 4100.02,511.802 4068,567.5C 4010.91,669.93 3988.25,779.597 4000,896.5C 4012.52,1019.89 4061.69,1125.73 4147.5,1214C 4162.2,1227.43 4177.37,1240.26 4193,1252.5C 4197.28,1262.89 4194.44,1270.72 4184.5,1276C 4182.83,1276.17 4181.17,1276.33 4179.5,1276.5C 4101.06,1258.59 4021.73,1246.43 3941.5,1240C 3897.78,1232.4 3864.61,1209.56 3842,1171.5C 3837.14,1163.11 3832.81,1154.45 3829,1145.5C 3809.7,1089.27 3793.04,1032.27 3779,974.5C 3768.58,929.923 3762.75,884.756 3761.5,839C 3763.7,776.617 3773.54,715.451 3791,655.5C 3802.19,615.926 3814.19,576.592 3827,537.5C 3841.51,496.989 3868.01,467.155 3906.5,448C 3917.75,443.25 3929.42,439.916 3941.5,438C 4019.98,432.196 4097.31,420.03 4173.5,401.5 Z"/></g>
<g><path style="opacity:0.996" fill="#fefffe" d="M 347.5,436.5 C 395.833,436.5 444.167,436.5 492.5,436.5C 492.5,528.5 492.5,620.5 492.5,712.5C 582.833,712.5 673.167,712.5 763.5,712.5C 763.5,620.5 763.5,528.5 763.5,436.5C 811.5,436.5 859.5,436.5 907.5,436.5C 907.5,682.833 907.5,929.167 907.5,1175.5C 859.5,1175.5 811.5,1175.5 763.5,1175.5C 763.5,1067.17 763.5,958.833 763.5,850.5C 673.167,850.5 582.833,850.5 492.5,850.5C 492.5,958.833 492.5,1067.17 492.5,1175.5C 444.167,1175.5 395.833,1175.5 347.5,1175.5C 347.5,929.167 347.5,682.833 347.5,436.5 Z"/></g>
<g><path style="opacity:0.992" fill="#fefffe" d="M 1866.5,436.5 C 1914.83,436.5 1963.17,436.5 2011.5,436.5C 2011.5,682.833 2011.5,929.167 2011.5,1175.5C 1963.17,1175.5 1914.83,1175.5 1866.5,1175.5C 1866.5,929.167 1866.5,682.833 1866.5,436.5 Z"/></g>
<g><path style="opacity:0.993" fill="#fefffe" d="M 1741.5,613.5 C 1768.68,611.836 1794.18,617.502 1818,630.5C 1818.67,672.833 1818.67,715.167 1818,757.5C 1775.89,735.026 1735.73,737.859 1697.5,766C 1677.31,785.215 1665.14,808.715 1661,836.5C 1658.81,850.081 1657.48,863.748 1657,877.5C 1656.5,976.833 1656.33,1076.17 1656.5,1175.5C 1608.17,1175.5 1559.83,1175.5 1511.5,1175.5C 1511.5,992.5 1511.5,809.5 1511.5,626.5C 1553.5,626.5 1595.5,626.5 1637.5,626.5C 1637.33,644.17 1637.5,661.836 1638,679.5C 1661.17,639.849 1695.67,617.849 1741.5,613.5 Z"/></g>
<g><path style="opacity:0.992" fill="#fefffe" d="M 2335.5,613.5 C 2397.13,610.259 2455.47,622.426 2510.5,650C 2593.92,698.165 2641.42,770.332 2653,866.5C 2655.57,890.46 2656.07,914.46 2654.5,938.5C 2502.17,938.5 2349.83,938.5 2197.5,938.5C 2209.13,998.968 2244.46,1038.13 2303.5,1056C 2352.25,1067.97 2399.91,1064.64 2446.5,1046C 2464.89,1037.82 2480.22,1025.82 2492.5,1010C 2543.17,1009.17 2593.84,1009.33 2644.5,1010.5C 2634.8,1035.58 2621.3,1058.25 2604,1078.5C 2576.34,1111.85 2543.17,1138.01 2504.5,1157C 2458.91,1175.85 2411.41,1184.68 2362,1183.5C 2293.19,1185.33 2230.35,1167.17 2173.5,1129C 2097.69,1072.54 2059.69,996.708 2059.5,901.5C 2061.49,782.277 2115.16,695.444 2220.5,641C 2257.25,624.727 2295.59,615.56 2335.5,613.5 Z M 2353.5,730.5 C 2408.83,728.764 2454.66,748.431 2491,789.5C 2500.12,801.906 2507.29,815.406 2512.5,830C 2409.83,830.833 2307.17,830.667 2204.5,829.5C 2233.9,766.282 2283.57,733.282 2353.5,730.5 Z"/></g>
<g><path style="opacity:0.992" fill="#fefffe" d="M 955.5,626.5 C 1003.83,626.5 1052.17,626.5 1100.5,626.5C 1100.33,725.834 1100.5,825.167 1101,924.5C 1101.48,945.459 1104.14,966.125 1109,986.5C 1121.99,1026.15 1149.16,1049.32 1190.5,1056C 1221.25,1060.82 1249.58,1054.82 1275.5,1038C 1300.19,1017.79 1313.69,991.618 1316,959.5C 1317.66,945.548 1318.66,931.548 1319,917.5C 1319.5,820.501 1319.67,723.501 1319.5,626.5C 1367.83,626.5 1416.17,626.5 1464.5,626.5C 1464.67,709.501 1464.5,792.501 1464,875.5C 1464.18,920.497 1460.51,965.163 1453,1009.5C 1430.84,1100.66 1374.01,1156.49 1282.5,1177C 1232.44,1185.93 1182.44,1185.6 1132.5,1176C 1039.87,1152.7 984.035,1094.2 965,1000.5C 959.349,963.386 956.349,926.052 956,888.5C 955.5,801.167 955.333,713.834 955.5,626.5 Z"/></g>
<g><path style="opacity:0.993" fill="#fefffe" d="M 2616.5,626.5 C 2669.17,626.5 2721.83,626.5 2774.5,626.5C 2819.58,733.719 2865.24,840.719 2911.5,947.5C 2962.26,840.985 3012.76,734.319 3063,627.5C 3116.43,626.17 3169.93,626.17 3223.5,627.5C 3121.5,843.5 3019.5,1059.5 2917.5,1275.5C 2863.84,1276.67 2810.17,1276.83 2756.5,1276C 2780.76,1225.47 2804.76,1174.8 2828.5,1124C 2757.68,958.203 2687.02,792.37 2616.5,626.5 Z"/></g>
</svg>
