<?xml version="1.0" encoding="UTF-8"?>
<!DOCTYPE svg PUBLIC "-//W3C//DTD SVG 1.1//EN" "http://www.w3.org/Graphics/SVG/1.1/DTD/svg11.dtd">
<svg xmlns="http://www.w3.org/2000/svg" version="1.1" width="3956px" height="1822px" style="shape-rendering:geometricPrecision; text-rendering:geometricPrecision; image-rendering:optimizeQuality; fill-rule:evenodd; clip-rule:evenodd" xmlns:xlink="http://www.w3.org/1999/xlink">
<g><path style="opacity:0.992" fill="#fefffe" d="M 1328.5,239.5 C 1505.5,239.538 1682.5,239.871 1859.5,240.5C 1872.52,290.573 1885.85,340.573 1899.5,390.5C 1689.03,378.273 1478.53,365.273 1268,351.5C 1266.83,351.167 1265.67,350.833 1264.5,350.5C 1286.1,313.636 1307.43,276.636 1328.5,239.5 Z"/></g>
<g><path style="opacity:0.997" fill="#fefffe" d="M 2272.5,239.5 C 2539.17,239.333 2805.83,239.5 3072.5,240C 3132.09,240.406 3190.42,249.073 3247.5,266C 3377.49,309.763 3430.66,399.596 3407,535.5C 3398.37,586.396 3380.04,633.396 3352,676.5C 3302.62,751.419 3239.12,811.252 3161.5,856C 3110.04,885.489 3055.71,908.155 2998.5,924C 3057.09,935.861 3105.26,964.694 3143,1010.5C 3174.38,1053.34 3187.38,1101.34 3182,1154.5C 3174.32,1223.91 3150.32,1286.91 3110,1343.5C 3070.96,1396.21 3024.46,1441.04 2970.5,1478C 2861.21,1550.22 2741.54,1596.56 2611.5,1617C 2588.61,1620.46 2565.61,1622.79 2542.5,1624C 2227.5,1624.34 1912.5,1624.84 1597.5,1625.5C 1582.66,1565.79 1567.66,1506.12 1552.5,1446.5C 1711.83,1435.4 1871.17,1424.23 2030.5,1413C 2032.52,1412.49 2034.02,1411.32 2035,1409.5C 2039.5,1401.67 2044,1393.83 2048.5,1386C 1875.18,1375.1 1701.85,1364.43 1528.5,1354C 1509.13,1283.69 1490.46,1213.19 1472.5,1142.5C 1719.52,1128.37 1966.52,1113.87 2213.5,1099C 2218.63,1090.58 2223.63,1082.08 2228.5,1073.5C 2226.23,1072.69 2223.9,1072.19 2221.5,1072C 1781.49,1044.33 1341.49,1016.5 901.5,988.5C 900.167,988.167 898.833,987.833 897.5,987.5C 918.96,950.748 940.293,913.915 961.5,877C 1437.82,845.823 1914.15,814.823 2390.5,784C 2392.43,783.749 2394.27,783.249 2396,782.5C 2400.83,774.167 2405.67,765.833 2410.5,757.5C 2270.88,747.636 2131.21,738.303 1991.5,729.5C 2035.29,651.939 2079.62,574.606 2124.5,497.5C 2272.09,486.963 2419.76,477.13 2567.5,468C 2570.83,467.667 2574.17,467.333 2577.5,467C 2582.63,458.582 2587.63,450.082 2592.5,441.5C 2592.29,440.914 2591.96,440.414 2591.5,440C 2452.4,430.572 2313.4,420.572 2174.5,410C 2207.39,353.279 2240.06,296.445 2272.5,239.5 Z M 2743.5,511.5 C 2788.5,511.333 2833.5,511.5 2878.5,512C 2912.33,518.492 2934.16,538.325 2944,571.5C 2951.72,606.568 2946.39,639.568 2928,670.5C 2905.22,706.989 2874.05,733.822 2834.5,751C 2805.36,763.201 2775.03,770.534 2743.5,773C 2693.17,774.239 2642.84,774.572 2592.5,774C 2643.24,686.69 2693.57,599.19 2743.5,511.5 Z M 2462.5,1039.5 C 2509.19,1039.05 2555.86,1039.55 2602.5,1041C 2649.65,1052.31 2674.32,1082.14 2676.5,1130.5C 2674.75,1167.6 2661.92,1200.26 2638,1228.5C 2602.91,1265.81 2560.41,1290.98 2510.5,1304C 2489.54,1309.83 2468.2,1313.49 2446.5,1315C 2391.5,1315.83 2336.5,1315.67 2281.5,1314.5C 2334.04,1223.25 2386.71,1132.08 2439.5,1041C 2447.34,1040.83 2455.01,1040.33 2462.5,1039.5 Z"/></g>
<g><path style="opacity:0.994" fill="#fefffe" d="M 1926.5,508.5 C 1927.5,508.5 1928.5,508.5 1929.5,508.5C 1948.6,582.074 1967.93,655.574 1987.5,729C 1685.51,709.584 1383.51,690.084 1081.5,670.5C 1081.49,668.692 1081.99,667.025 1083,665.5C 1103.33,630.167 1123.67,594.833 1144,559.5C 1145.4,558.773 1146.9,558.273 1148.5,558C 1408.01,541.822 1667.34,525.322 1926.5,508.5 Z"/></g>
<g><path style="opacity:0.993" fill="#fefffe" d="M 1466.5,1142.5 C 1467.38,1142.37 1468.04,1142.7 1468.5,1143.5C 1430.04,1209.58 1391.71,1275.75 1353.5,1342C 1140.49,1330.87 927.494,1319.37 714.5,1307.5C 734.451,1270.94 754.951,1234.61 776,1198.5C 776.979,1196.68 778.479,1195.51 780.5,1195C 1009.35,1177.82 1238.01,1160.32 1466.5,1142.5 Z"/></g>
<g><path style="opacity:0.992" fill="#fefffe" d="M 1276.5,1465.5 C 1278.5,1465.5 1280.5,1465.5 1282.5,1465.5C 1252.71,1518.39 1222.38,1571.06 1191.5,1623.5C 971.17,1625.36 750.837,1625.86 530.5,1625C 551.833,1588 573.167,1551 594.5,1514C 822.004,1498.06 1049.34,1481.89 1276.5,1465.5 Z"/></g>
</svg>
