<?xml version="1.0" encoding="UTF-8"?>
<!DOCTYPE svg PUBLIC "-//W3C//DTD SVG 1.1//EN" "http://www.w3.org/Graphics/SVG/1.1/DTD/svg11.dtd">
<svg xmlns="http://www.w3.org/2000/svg" version="1.1" width="250px" height="250px" style="shape-rendering:geometricPrecision; text-rendering:geometricPrecision; image-rendering:optimizeQuality; fill-rule:evenodd; clip-rule:evenodd" xmlns:xlink="http://www.w3.org/1999/xlink">
<g><path style="opacity:0.93" fill="#fefffe" d="M 113.5,12.5 C 157.1,9.95498 191.933,25.955 218,60.5C 220.267,63.7007 221.934,67.0341 223,70.5C 214.559,71.8153 206.059,71.8153 197.5,70.5C 176.569,44.2337 149.235,32.4004 115.5,35C 66.0515,44.452 38.8848,74.2853 34,124.5C 29.3634,135.772 24.1967,146.772 18.5,157.5C 4.97658,104.569 20.3099,62.0691 64.5,30C 79.7635,20.8589 96.0968,15.0256 113.5,12.5 Z"/></g>
<g><path style="opacity:0.946" fill="#fefffe" d="M 67.5,74.5 C 93.1667,74.5 118.833,74.5 144.5,74.5C 144.657,75.8734 144.49,77.2068 144,78.5C 134.472,99.4167 125.139,120.417 116,141.5C 112.842,147.327 108.008,150.827 101.5,152C 87.1551,152.167 72.8217,152.667 58.5,153.5C 55.2728,160.955 51.7728,168.288 48,175.5C 40.9258,182.805 32.2592,185.805 22,184.5C 18.8333,184.333 15.6667,184.167 12.5,184C 12.0426,183.586 11.7093,183.086 11.5,182.5C 26.7809,148.108 42.4475,113.942 58.5,80C 61.2632,77.6258 64.2632,75.7925 67.5,74.5 Z M 87.5,93.5 C 93.1667,93.5 98.8333,93.5 104.5,93.5C 99.6445,105.554 94.4778,117.554 89,129.5C 85.2491,132.981 80.7491,134.314 75.5,133.5C 72.5,133.167 69.5,132.833 66.5,132.5C 71.5775,120.757 76.7442,109.091 82,97.5C 83.4998,95.5313 85.3331,94.198 87.5,93.5 Z"/></g>
<g><path style="opacity:0.937" fill="#fefffe" d="M 161.5,74.5 C 186.5,74.5 211.5,74.5 236.5,74.5C 233.701,83.7224 230.201,92.7224 226,101.5C 222.878,105.969 218.712,108.802 213.5,110C 206.808,110.831 200.142,110.664 193.5,109.5C 195.705,104.259 198.038,99.0921 200.5,94C 197,93.8333 193.5,93.6667 190,93.5C 185.719,93.3993 181.552,93.8993 177.5,95C 173.122,101.235 170.622,108.068 170,115.5C 170.374,116.416 170.874,117.25 171.5,118C 180.833,122 190.167,126 199.5,130C 205.053,134.618 206.886,140.451 205,147.5C 200.745,158.508 195.579,169.008 189.5,179C 185.965,181.767 181.965,183.434 177.5,184C 153.502,184.5 129.502,184.667 105.5,184.5C 108.858,172.591 113.858,161.424 120.5,151C 122.888,149.139 125.554,147.806 128.5,147C 135.158,146.5 141.825,146.334 148.5,146.5C 146.621,152.895 144.788,159.228 143,165.5C 149.73,165.74 156.563,165.24 163.5,164C 169.024,157.802 171.857,150.635 172,142.5C 171.167,141.667 170.333,140.833 169.5,140C 160.339,136.724 151.339,133.058 142.5,129C 138.492,125.973 136.158,121.973 135.5,117C 139.965,104.9 145.131,93.0662 151,81.5C 154.154,78.4884 157.654,76.1551 161.5,74.5 Z"/></g>
<g><path style="opacity:0.932" fill="#fefffe" d="M 232.5,95.5 C 244.146,139.42 233.479,177.253 200.5,209C 165.063,238.019 125.729,244.685 82.5,229C 61.9053,220.067 45.2386,206.4 32.5,188C 39.6519,186.176 45.8186,182.676 51,177.5C 79.6229,212.036 115.456,222.536 158.5,209C 199.389,190.091 218.389,157.925 215.5,112.5C 224.109,109.891 229.776,104.225 232.5,95.5 Z"/></g>
</svg>
