<?xml version="1.0" encoding="UTF-8"?>
<!DOCTYPE svg PUBLIC "-//W3C//DTD SVG 1.1//EN" "http://www.w3.org/Graphics/SVG/1.1/DTD/svg11.dtd">
<svg xmlns="http://www.w3.org/2000/svg" version="1.1" width="4664px" height="2673px" style="shape-rendering:geometricPrecision; text-rendering:geometricPrecision; image-rendering:optimizeQuality; fill-rule:evenodd; clip-rule:evenodd" xmlns:xlink="http://www.w3.org/1999/xlink">
<g><path style="opacity:0.995" fill="#fefffe" d="M 4189.5,379.5 C 4230.63,378.96 4252.63,399.294 4255.5,440.5C 4253.54,470.065 4243.04,496.065 4224,518.5C 4206.68,535.083 4187.18,548.583 4165.5,559C 4141.96,570.938 4118.29,582.605 4094.5,594C 4074.28,606.887 4054.61,620.554 4035.5,635C 4011.15,655.25 3990.65,678.75 3974,705.5C 3950.42,743.985 3929.42,783.985 3911,825.5C 3895.39,861.05 3880.06,896.717 3865,932.5C 3849.37,961.147 3829.54,986.647 3805.5,1009C 3785.26,1027.58 3763.59,1044.25 3740.5,1059C 3733.05,1064.9 3732.55,1071.4 3739,1078.5C 3755.06,1094.28 3767.39,1112.61 3776,1133.5C 3800.93,1198.22 3815.93,1265.22 3821,1334.5C 3822.35,1350.14 3823.35,1365.81 3824,1381.5C 3824.33,1412.5 3824.67,1443.5 3825,1474.5C 3827.54,1489.57 3832.87,1503.57 3841,1516.5C 3848.17,1528.84 3855.83,1540.84 3864,1552.5C 3869.03,1557.92 3874.53,1562.76 3880.5,1567C 3892.11,1574.28 3903.44,1581.94 3914.5,1590C 3925.56,1599.63 3931.73,1611.79 3933,1626.5C 3931.03,1657.68 3937.37,1687.01 3952,1714.5C 3960.84,1728.17 3969.17,1742.17 3977,1756.5C 3979.12,1762.35 3979.78,1768.35 3979,1774.5C 3975.34,1784.49 3971.67,1794.49 3968,1804.5C 3966.35,1811.07 3965.35,1817.74 3965,1824.5C 3965.01,1847.18 3965.35,1869.84 3966,1892.5C 3965.04,1898.13 3961.88,1901.96 3956.5,1904C 3903.56,1906.41 3867.39,1882.91 3848,1833.5C 3837.6,1805.11 3831.93,1775.77 3831,1745.5C 3830.24,1722.49 3830.41,1699.49 3831.5,1676.5C 3831.42,1669.83 3829.92,1663.5 3827,1657.5C 3799.83,1636.33 3772.67,1615.17 3745.5,1594C 3693.69,1543.22 3647.52,1488.05 3607,1428.5C 3589.03,1400.9 3573.36,1371.9 3560,1341.5C 3546.2,1303.9 3530.2,1267.23 3512,1231.5C 3480.54,1175.39 3434.04,1137.56 3372.5,1118C 3361.04,1114.64 3349.37,1112.31 3337.5,1111C 3280.44,1110.97 3223.77,1106.31 3167.5,1097C 3068.7,1080.76 2983.03,1038.76 2910.5,971C 2881.71,940.874 2851.71,912.208 2820.5,885C 2815.84,882.422 2811.01,880.255 2806,878.5C 2798.92,883.579 2792.42,889.413 2786.5,896C 2755.04,925.104 2717.71,938.937 2674.5,937.5C 2647.9,937.105 2621.9,932.938 2596.5,925C 2578.94,919.257 2561.6,912.924 2544.5,906C 2512.29,891.059 2479.95,876.393 2447.5,862C 2440.24,859.143 2432.74,857.31 2425,856.5C 2419.22,856.224 2414.88,858.558 2412,863.5C 2410.28,866.674 2408.94,870.007 2408,873.5C 2406.32,883.237 2404.32,892.904 2402,902.5C 2398.73,912.39 2391.9,917.89 2381.5,919C 2341.25,921.13 2313.42,903.63 2298,866.5C 2292.73,832.548 2303.89,805.382 2331.5,785C 2360.04,767.773 2391.04,757.773 2424.5,755C 2448.26,752.588 2471.92,753.255 2495.5,757C 2507.55,759.311 2519.55,761.811 2531.5,764.5C 2543.51,762.989 2551.01,756.322 2554,744.5C 2557.37,732.405 2557.03,720.405 2553,708.5C 2546.78,696.294 2536.95,688.461 2523.5,685C 2513.57,681.477 2503.41,678.977 2493,677.5C 2474.44,680.934 2455.94,684.601 2437.5,688.5C 2427.1,687.865 2417.76,684.365 2409.5,678C 2400.83,668.667 2392.17,659.333 2383.5,650C 2370.36,639.596 2356.69,629.929 2342.5,621C 2326.26,606.627 2323.1,589.793 2333,570.5C 2341.52,562.163 2350.69,554.663 2360.5,548C 2366.05,542.4 2370.22,535.9 2373,528.5C 2375.04,519.573 2376.7,510.573 2378,501.5C 2380.91,493.588 2385.74,487.088 2392.5,482C 2401.34,477.078 2410.34,472.412 2419.5,468C 2431.38,460.084 2440.88,449.918 2448,437.5C 2455.59,423.992 2462.92,410.326 2470,396.5C 2472.17,393.667 2474.33,390.833 2476.5,388C 2480.92,385.164 2485.25,385.498 2489.5,389C 2498.04,398.542 2506.21,408.375 2514,418.5C 2517.09,422.289 2520.92,424.956 2525.5,426.5C 2527.61,425.946 2529.61,425.112 2531.5,424C 2541.4,413.522 2551.07,402.856 2560.5,392C 2562.83,390.333 2565.17,388.667 2567.5,387C 2570.31,386.089 2573.14,385.256 2576,384.5C 2578.06,385.112 2579.89,386.112 2581.5,387.5C 2594.55,406.428 2606.22,426.262 2616.5,447C 2673.15,452.078 2727.48,466.078 2779.5,489C 2836.96,514.387 2891.63,544.387 2943.5,579C 3014.3,626.787 3081.97,678.787 3146.5,735C 3190.42,774.28 3235.09,812.613 3280.5,850C 3336.15,891.879 3396.15,926.879 3460.5,955C 3517.92,980.419 3577.92,990.752 3640.5,986C 3665.34,982.387 3688.67,974.387 3710.5,962C 3766.48,928.353 3810.65,883.187 3843,826.5C 3849.26,814.99 3855.26,803.323 3861,791.5C 3879.28,748.615 3897.28,705.615 3915,662.5C 3940.75,600.275 3975.09,543.608 4018,492.5C 4056.89,449.478 4102.39,415.311 4154.5,390C 4165.87,385.08 4177.54,381.58 4189.5,379.5 Z"/></g>
<g><path style="opacity:0.995" fill="#fefffe" d="M 407.5,1362.5 C 581.834,1362.33 756.167,1362.5 930.5,1363C 975.599,1370.43 1000.43,1396.93 1005,1442.5C 1005.67,1621.17 1005.67,1799.83 1005,1978.5C 1000.73,2021.55 977.562,2048.05 935.5,2058C 844.853,2059.47 754.186,2059.97 663.5,2059.5C 663.5,2137.17 663.5,2214.83 663.5,2292.5C 578.167,2292.5 492.833,2292.5 407.5,2292.5C 407.5,1982.5 407.5,1672.5 407.5,1362.5 Z M 663.5,1474.5 C 680.17,1474.33 696.837,1474.5 713.5,1475C 733.568,1479.73 745.401,1492.23 749,1512.5C 749.667,1643.5 749.667,1774.5 749,1905.5C 744.798,1928.04 731.298,1940.54 708.5,1943C 693.504,1943.5 678.504,1943.67 663.5,1943.5C 663.5,1787.17 663.5,1630.83 663.5,1474.5 Z"/></g>
<g><path style="opacity:0.996" fill="#fefffe" d="M 1090.5,1362.5 C 1175.83,1362.5 1261.17,1362.5 1346.5,1362.5C 1346.33,1622.5 1346.5,1882.5 1347,2142.5C 1352.01,2165.35 1366.18,2177.68 1389.5,2179.5C 1409.37,2178.13 1422.87,2168.13 1430,2149.5C 1430.94,2145.89 1431.61,2142.22 1432,2138.5C 1432.5,1879.83 1432.67,1621.17 1432.5,1362.5C 1517.83,1362.5 1603.17,1362.5 1688.5,1362.5C 1688.67,1648.5 1688.5,1934.5 1688,2220.5C 1685.38,2250.76 1670.54,2272.6 1643.5,2286C 1638.36,2288.27 1633.03,2289.94 1627.5,2291C 1548.2,2292.16 1468.86,2292.66 1389.5,2292.5C 1310.14,2292.66 1230.8,2292.16 1151.5,2291C 1116.67,2282.17 1096.51,2260.01 1091,2224.5C 1090.5,1937.17 1090.33,1649.83 1090.5,1362.5 Z"/></g>
<g><path style="opacity:0.996" fill="#fefffe" d="M 1849.5,1362.5 C 2112.17,1362.33 2374.83,1362.5 2637.5,1363C 2679.45,1369.62 2704.28,1393.78 2712,1435.5C 2712.5,1721.17 2712.67,2006.83 2712.5,2292.5C 2627.17,2292.5 2541.83,2292.5 2456.5,2292.5C 2456.67,2032.17 2456.5,1771.83 2456,1511.5C 2448.65,1483.17 2430.49,1471.33 2401.5,1476C 2383.59,1482.24 2373.42,1494.74 2371,1513.5C 2370.5,1773.17 2370.33,2032.83 2370.5,2292.5C 2285.5,2292.5 2200.5,2292.5 2115.5,2292.5C 2115.67,2031.5 2115.5,1770.5 2115,1509.5C 2109.46,1487.72 2095.46,1476.06 2073,1474.5C 2050.66,1475.5 2036.66,1486.84 2031,1508.5C 2030.5,1769.83 2030.33,2031.17 2030.5,2292.5C 1944.83,2292.5 1859.17,2292.5 1773.5,2292.5C 1773.33,2008.17 1773.5,1723.83 1774,1439.5C 1778.36,1402.48 1798.19,1377.98 1833.5,1366C 1838.91,1364.5 1844.24,1363.34 1849.5,1362.5 Z"/></g>
<g><path style="opacity:0.997" fill="#fefffe" d="M 2873.5,1362.5 C 3022.5,1362.33 3171.5,1362.5 3320.5,1363C 3363.33,1369.83 3388.17,1394.67 3395,1437.5C 3395.5,1722.5 3395.67,2007.5 3395.5,2292.5C 3310.17,2292.5 3224.83,2292.5 3139.5,2292.5C 3139.5,2214.83 3139.5,2137.17 3139.5,2059.5C 3110.83,2059.5 3082.17,2059.5 3053.5,2059.5C 3053.5,2137.17 3053.5,2214.83 3053.5,2292.5C 2968.5,2292.5 2883.5,2292.5 2798.5,2292.5C 2798.33,2006.17 2798.5,1719.83 2799,1433.5C 2807.82,1392.84 2832.65,1369.18 2873.5,1362.5 Z M 3092.5,1474.5 C 3117.49,1474.33 3132.99,1486.33 3139,1510.5C 3139.5,1654.83 3139.67,1799.17 3139.5,1943.5C 3110.83,1943.5 3082.17,1943.5 3053.5,1943.5C 3053.33,1800.5 3053.5,1657.5 3054,1514.5C 3057.23,1491.78 3070.06,1478.44 3092.5,1474.5 Z"/></g>
</svg>
