<?xml version="1.0" encoding="UTF-8"?>
<!DOCTYPE svg PUBLIC "-//W3C//DTD SVG 1.1//EN" "http://www.w3.org/Graphics/SVG/1.1/DTD/svg11.dtd">
<svg xmlns="http://www.w3.org/2000/svg" version="1.1" width="4496px" height="1463px" style="shape-rendering:geometricPrecision; text-rendering:geometricPrecision; image-rendering:optimizeQuality; fill-rule:evenodd; clip-rule:evenodd" xmlns:xlink="http://www.w3.org/1999/xlink">
<g><path style="opacity:0.991" fill="#fefffe" d="M 3680.5,250.5 C 3691.83,250.5 3703.17,250.5 3714.5,250.5C 3708.12,350.167 3701.62,449.834 3695,549.5C 3648,630.833 3601,712.167 3554,793.5C 3470.66,850.002 3386.99,906.002 3303,961.5C 3296.68,952.194 3290.84,942.528 3285.5,932.5C 3417.22,705.132 3548.89,477.799 3680.5,250.5 Z"/></g>
<g><path style="opacity:0.991" fill="#fefffe" d="M 3742.5,250.5 C 3754.5,250.333 3766.5,250.5 3778.5,251C 3909.5,478.667 4040.5,706.333 4171.5,934C 4165.75,944.166 4159.75,954.166 4153.5,964C 4152.09,964.315 4150.76,963.982 4149.5,963C 4067.34,907.419 3985.01,852.086 3902.5,797C 3854.62,714.745 3807.12,632.245 3760,549.5C 3754.26,449.809 3748.43,350.142 3742.5,250.5 Z"/></g>
<g><path style="opacity:0.991" fill="#fefffe" d="M 325.5,421.5 C 416.833,421.919 508.167,422.419 599.5,423C 637.451,424.456 673.784,432.789 708.5,448C 755.655,470.788 784.155,507.954 794,559.5C 801.132,598.592 797.465,636.592 783,673.5C 760.39,719.763 723.89,748.596 673.5,760C 665.242,761.799 656.909,763.132 648.5,764C 632.459,764.604 616.459,764.604 600.5,764C 671.833,843.333 743.167,922.667 814.5,1002C 766.167,1002.67 717.833,1002.67 669.5,1002C 592.667,916.5 515.833,831 439,745.5C 438.5,831.166 438.333,916.833 438.5,1002.5C 400.161,1002.66 361.827,1002.32 323.5,1001.5C 324.205,808.168 324.871,614.835 325.5,421.5 Z M 438.5,521.5 C 489.792,522.324 541.126,522.824 592.5,523C 616.71,524.051 639.376,530.384 660.5,542C 681.225,556.275 691.891,576.108 692.5,601.5C 693.451,639.68 675.785,664.18 639.5,675C 627.004,678.083 614.338,680.083 601.5,681C 547.168,681.5 492.834,681.667 438.5,681.5C 438.5,628.167 438.5,574.833 438.5,521.5 Z"/></g>
<g><path style="opacity:0.992" fill="#fefffe" d="M 1773.5,424.5 C 1811.17,424.5 1848.83,424.5 1886.5,424.5C 1886.33,472.501 1886.5,520.501 1887,568.5C 1906.82,554.017 1928.98,545.183 1953.5,542C 2007.43,533.32 2058.09,542.32 2105.5,569C 2154.53,601.195 2182.03,646.695 2188,705.5C 2189.59,749.15 2189.92,792.817 2189,836.5C 2183.25,935.084 2132.08,994.751 2035.5,1015.5C 2003.24,1020.2 1970.9,1020.7 1938.5,1017C 1903.63,1011.39 1872.3,997.89 1844.5,976.5C 1827.67,985.413 1811.01,994.579 1794.5,1004C 1787.17,1004.5 1779.84,1004.67 1772.5,1004.5C 1773.39,811.168 1773.72,617.835 1773.5,424.5 Z M 1969.5,638.5 C 1996.61,636.485 2021.61,642.652 2044.5,657C 2063.54,672.578 2074.04,692.744 2076,717.5C 2076.67,758.5 2076.67,799.5 2076,840.5C 2071.84,883.33 2048.67,909.163 2006.5,918C 1975.52,924.115 1946.52,919.115 1919.5,903C 1898.49,887.153 1887.32,865.987 1886,839.5C 1885.33,801.833 1885.33,764.167 1886,726.5C 1886.22,683.512 1906.72,655.679 1947.5,643C 1954.93,641.281 1962.26,639.781 1969.5,638.5 Z"/></g>
<g><path style="opacity:0.992" fill="#fefffe" d="M 2719.5,426.5 C 2757.17,426.5 2794.83,426.5 2832.5,426.5C 2832.33,530.501 2832.5,634.501 2833,738.5C 2891.13,672.036 2949.63,605.87 3008.5,540C 3055.49,540.229 3102.49,540.563 3149.5,541C 3081.83,617.333 3014.17,693.667 2946.5,770C 3017.31,848.983 3088.31,927.816 3159.5,1006.5C 3157.67,1006.83 3155.83,1007.17 3154,1007.5C 3107.84,1006.69 3061.68,1006.19 3015.5,1006C 2955.04,937.869 2894.2,870.035 2833,802.5C 2831.95,870.496 2831.45,938.496 2831.5,1006.5C 2793.83,1006.5 2756.17,1006.5 2718.5,1006.5C 2718.65,813.166 2718.99,619.833 2719.5,426.5 Z"/></g>
<g><path style="opacity:0.991" fill="#fefffe" d="M 1015.5,536.5 C 1053.86,534.461 1091.19,539.627 1127.5,552C 1200.48,581.394 1238.98,635.561 1243,714.5C 1243.5,746.165 1243.67,777.832 1243.5,809.5C 1142.17,809.38 1040.83,809.047 939.5,808.5C 937.61,829.029 940.11,849.029 947,868.5C 956.173,891.009 972.34,905.842 995.5,913C 1031.26,923.958 1066.93,923.625 1102.5,912C 1122.48,904.188 1134.14,889.688 1137.5,868.5C 1172.16,867.5 1206.83,867.167 1241.5,867.5C 1236.91,931.596 1205.24,976.096 1146.5,1001C 1124.22,1009.32 1101.22,1014.32 1077.5,1016C 1028.91,1021.9 981.909,1015.9 936.5,998C 872.026,967.922 835.859,917.422 828,846.5C 827.333,800.833 827.333,755.167 828,709.5C 837.564,615.596 888.731,559.43 981.5,541C 992.947,539.231 1004.28,537.731 1015.5,536.5 Z M 1027.5,631.5 C 1051.16,630.399 1073.5,635.232 1094.5,646C 1115.61,659.377 1127.78,678.543 1131,703.5C 1131.78,711.153 1132.28,718.819 1132.5,726.5C 1068.17,726.5 1003.83,726.5 939.5,726.5C 937.485,701.538 943.985,679.205 959,659.5C 971.62,646.771 986.786,638.604 1004.5,635C 1012.26,633.447 1019.92,632.28 1027.5,631.5 Z"/></g>
<g><path style="opacity:0.991" fill="#fefffe" d="M 1483.5,537.5 C 1534.71,533.575 1583.04,543.409 1628.5,567C 1674.47,594.69 1701.97,635.19 1711,688.5C 1712.7,698.763 1713.7,709.096 1714,719.5C 1714.42,749.835 1714.25,780.169 1713.5,810.5C 1612.5,809.641 1511.5,809.308 1410.5,809.5C 1407.26,837.128 1412.76,862.795 1427,886.5C 1437.51,899.993 1451.01,909.16 1467.5,914C 1502.62,924.267 1537.62,923.933 1572.5,913C 1592.63,905.257 1604.63,890.757 1608.5,869.5C 1642.83,868.5 1677.16,868.167 1711.5,868.5C 1706.96,935.133 1673.63,980.3 1611.5,1004C 1590.41,1011.15 1568.74,1015.49 1546.5,1017C 1499.37,1022.57 1453.7,1016.9 1409.5,1000C 1340.9,969.017 1303.73,915.85 1298,840.5C 1297.08,794.485 1297.41,748.485 1299,702.5C 1308.33,623.511 1350.83,572.011 1426.5,548C 1445.32,542.755 1464.32,539.255 1483.5,537.5 Z M 1494.5,632.5 C 1514.74,631.536 1534.41,634.369 1553.5,641C 1579.87,651.905 1595.71,671.405 1601,699.5C 1602.28,708.788 1602.78,718.121 1602.5,727.5C 1538.17,726.733 1473.84,726.4 1409.5,726.5C 1409.22,669.12 1437.55,637.787 1494.5,632.5 Z"/></g>
<g><path style="opacity:0.993" fill="#fefffe" d="M 2425.5,539.5 C 2466.54,536.103 2506.54,540.936 2545.5,554C 2614.75,581.288 2652.92,632.121 2660,706.5C 2660.67,754.5 2660.67,802.5 2660,850.5C 2652.1,932.389 2608.94,985.555 2530.5,1010C 2497.04,1018.83 2463.04,1021.83 2428.5,1019C 2382.62,1016.21 2341.62,1000.87 2305.5,973C 2269.05,940.041 2249.21,898.875 2246,849.5C 2245.33,802.833 2245.33,756.167 2246,709.5C 2253.46,627.05 2296.63,573.55 2375.5,549C 2392.08,544.628 2408.75,541.462 2425.5,539.5 Z M 2442.5,638.5 C 2469.84,636.462 2494.84,642.962 2517.5,658C 2537.13,674.441 2547.3,695.607 2548,721.5C 2548.67,759.167 2548.67,796.833 2548,834.5C 2545.83,880.333 2522.33,908.166 2477.5,918C 2444.95,924.244 2414.95,918.244 2387.5,900C 2369.29,884.406 2359.45,864.573 2358,840.5C 2357.33,800.167 2357.33,759.833 2358,719.5C 2360.59,681.59 2379.76,656.423 2415.5,644C 2424.51,641.504 2433.51,639.671 2442.5,638.5 Z"/></g>
<g><path style="opacity:0.993" fill="#fefffe" d="M 3583.5,852.5 C 3679.5,852.333 3775.5,852.5 3871.5,853C 3957.5,896.667 4043.5,940.333 4129.5,984C 4132.7,985.763 4135.7,987.763 4138.5,990C 4133.63,998.898 4128.63,1007.73 4123.5,1016.5C 4076,1016.83 4028.5,1017.17 3981,1017.5C 3765.17,1017.02 3549.33,1016.35 3333.5,1015.5C 3327.55,1006.37 3322.22,996.874 3317.5,987C 3317.83,986.5 3318.17,986 3318.5,985.5C 3407.05,941.392 3495.38,897.059 3583.5,852.5 Z"/></g>
</svg>
