<?xml version="1.0" encoding="UTF-8"?>
<!DOCTYPE svg PUBLIC "-//W3C//DTD SVG 1.1//EN" "http://www.w3.org/Graphics/SVG/1.1/DTD/svg11.dtd">
<svg xmlns="http://www.w3.org/2000/svg" version="1.1" width="10416px" height="5520px" style="shape-rendering:geometricPrecision; text-rendering:geometricPrecision; image-rendering:optimizeQuality; fill-rule:evenodd; clip-rule:evenodd" xmlns:xlink="http://www.w3.org/1999/xlink">
<g><path style="opacity:1" fill="#fefefe" d="M 6772.5,1802.5 C 7236.83,1802.5 7701.17,1802.5 8165.5,1802.5C 8121.99,1988.56 8078.15,2174.56 8034,2360.5C 7955.24,2361.5 7876.4,2361.83 7797.5,2361.5C 7745.89,2586.11 7693.89,2810.61 7641.5,3035C 7414,3034.87 7186.5,3034.04 6959,3032.5C 6947.83,3032.83 6936.67,3033.17 6925.5,3033.5C 6907.96,3112.53 6890.29,3191.53 6872.5,3270.5C 7215.5,3271.5 7558.5,3271.83 7901.5,3271.5C 7858.05,3457.82 7814.05,3643.98 7769.5,3830C 7281.17,3830.67 6792.83,3830.67 6304.5,3830C 6256.89,3828.14 6214.89,3812.14 6178.5,3782C 6148.13,3752.77 6132.8,3716.94 6132.5,3674.5C 6132.96,3660.72 6134.46,3647.05 6137,3633.5C 6269.18,3074.46 6401.51,2515.46 6534,1956.5C 6555.29,1880.54 6604.12,1833.04 6680.5,1814C 6710.96,1807.36 6741.63,1803.53 6772.5,1802.5 Z M 7084.5,2361.5 C 7279.67,2361.17 7474.67,2361.5 7669.5,2362.5C 7430.86,2547.15 7192.52,2732.15 6954.5,2917.5C 6953.83,2917.5 6953.5,2917.17 6953.5,2916.5C 6997.32,2731.54 7040.99,2546.54 7084.5,2361.5 Z"/></g>
<g><path style="opacity:1" fill="#fefefe" d="M 6329.5,2359.5 C 6038.07,2360.17 5746.74,2360.83 5455.5,2361.5C 5384.58,2664.68 5313.58,2967.85 5242.5,3271C 5550.17,3271.5 5857.83,3271.67 6165.5,3271.5C 6118.71,3457.82 6071.38,3643.99 6023.5,3830C 5576.17,3830.67 5128.83,3830.67 4681.5,3830C 4636.54,3828.35 4596.54,3813.69 4561.5,3786C 4522.2,3749.44 4505.36,3704.27 4511,3650.5C 4511.87,3642.09 4513.2,3633.76 4515,3625.5C 4646.16,3071.87 4777.16,2518.2 4908,1964.5C 4918.64,1932.55 4933.97,1903.22 4954,1876.5C 4987.85,1837.32 5030.68,1814.48 5082.5,1808C 5100.4,1805.31 5118.4,1803.65 5136.5,1803C 5577.83,1802.5 6019.17,1802.33 6460.5,1802.5C 6417.31,1988.28 6373.64,2173.94 6329.5,2359.5 Z"/></g>
<g><path style="opacity:1" fill="#fefefe" d="M 735.5,2360.5 C 687.167,2359.83 638.833,2359.17 590.5,2358.5C 629.953,2173.53 669.953,1988.69 710.5,1804C 1221.83,1804.23 1733.17,1804.56 2244.5,1805C 2389.48,1813.25 2510.65,1870.75 2608,1977.5C 2692.56,2078.2 2729.23,2194.54 2718,2326.5C 2711.65,2429.99 2673.31,2519.32 2603,2594.5C 2575.63,2623.22 2546.46,2649.72 2515.5,2674C 2366.93,2792.24 2216.93,2908.58 2065.5,3023C 2231.04,3189.71 2396.37,3356.54 2561.5,3523.5C 2684.98,3003.59 2808.14,2483.59 2931,1963.5C 2951.73,1887.11 3000.23,1838.27 3076.5,1817C 3106.65,1809.03 3137.31,1804.69 3168.5,1804C 3648.17,1803.33 4127.83,1803.33 4607.5,1804C 4650.51,1804.84 4690.85,1815.5 4728.5,1836C 4781.37,1868.58 4805.54,1916.08 4801,1978.5C 4800.13,1987.57 4798.8,1996.57 4797,2005.5C 4666.67,2560.17 4536.33,3114.83 4406,3669.5C 4383.45,3751.71 4330.62,3802.21 4247.5,3821C 4224.1,3826.05 4200.43,3829.05 4176.5,3830C 3448.83,3830.67 2721.17,3830.67 1993.5,3830C 1743,3580.83 1492.5,3331.67 1242,3082.5C 1181.73,3331.93 1122.23,3581.6 1063.5,3831.5C 832.499,3831.83 601.499,3831.5 370.5,3830.5C 442.602,3530.16 514.769,3229.82 587,2929.5C 804.833,2740.33 1022.67,2551.17 1240.5,2362C 1072.17,2360.61 903.837,2360.11 735.5,2360.5 Z M 1399.5,2361.5 C 1596,2361.17 1792.33,2361.5 1988.5,2362.5C 1749.81,2549.52 1511.15,2736.52 1272.5,2923.5C 1314.83,2736.17 1357.17,2548.83 1399.5,2361.5 Z M 3853.5,3271.5 C 3656.83,3272.17 3460.5,3271.5 3264.5,3269.5C 3336.48,2966.91 3408.15,2664.24 3479.5,2361.5C 3676.5,2361.33 3873.5,2361.5 4070.5,2362C 3998.09,2665.13 3925.76,2968.3 3853.5,3271.5 Z"/></g>
<g><path style="opacity:1" fill="#fefefe" d="M 9700.5,2360.5 C 9441.83,2360.17 9183.17,2360.5 8924.5,2361.5C 8924.62,2362.11 8924.96,2362.44 8925.5,2362.5C 9126.09,2594.94 9326.93,2827.27 9528,3059.5C 9582.06,3129.98 9618.06,3208.98 9636,3296.5C 9660.08,3436.54 9627.74,3561.54 9539,3671.5C 9454.06,3769.22 9346.56,3822.05 9216.5,3830C 8777.17,3830.5 8337.83,3830.67 7898.5,3830.5C 7940.95,3644.19 7983.95,3458.02 8027.5,3272C 8314.5,3271.67 8601.5,3271.33 8888.5,3271C 8671.3,3028.8 8454.46,2786.3 8238,2543.5C 8126.98,2414.71 8098.64,2269.37 8153,2107.5C 8201.15,1983.01 8285.99,1893.18 8407.5,1838C 8450.03,1819.95 8494.37,1809.28 8540.5,1806C 8971.49,1804.35 9402.49,1804.01 9833.5,1805C 9790.06,1990.25 9745.73,2175.41 9700.5,2360.5 Z"/></g>
<g><path style="opacity:1" fill="#fefdfd" d="M 10067.5,1893.5 C 10143,1889.02 10200.5,1918.68 10240,1982.5C 10266.9,2033.93 10269.6,2086.59 10248,2140.5C 10219.1,2201.06 10171.2,2235.89 10104.5,2245C 10029.8,2249.57 9972.63,2220.4 9933,2157.5C 9901.67,2098.84 9901.67,2040.17 9933,1981.5C 9963.96,1931.06 10008.8,1901.72 10067.5,1893.5 Z M 10081.5,1945.5 C 10134.5,1946.39 10173.3,1970.06 10198,2016.5C 10218.6,2066.51 10211.6,2112.18 10177,2153.5C 10136.7,2192.49 10090.2,2202.32 10037.5,2183C 9980.84,2154.52 9956.67,2108.69 9965,2045.5C 9973.97,2005.87 9996.47,1976.7 10032.5,1958C 10048.2,1950.96 10064.6,1946.79 10081.5,1945.5 Z M 10065.5,2025.5 C 10077.9,2025.11 10090.2,2025.61 10102.5,2027C 10109.7,2029.08 10113.4,2033.91 10113.5,2041.5C 10112.5,2049.34 10108.2,2054.17 10100.5,2056C 10088.8,2056.5 10077.2,2056.67 10065.5,2056.5C 10065.5,2046.17 10065.5,2035.83 10065.5,2025.5 Z"/></g>
<g><path style="opacity:1" fill="#fefdfd" d="M 10015.5,1986.5 C 10050.2,1986.33 10084.8,1986.5 10119.5,1987C 10154.1,1993.47 10168,2013.97 10161,2048.5C 10157.8,2059.72 10150.9,2067.89 10140.5,2073C 10153.1,2080.6 10160.2,2091.77 10162,2106.5C 10162.9,2116.51 10163.9,2126.51 10165,2136.5C 10165.4,2140.29 10166.5,2143.79 10168.5,2147C 10151.5,2147.5 10134.5,2147.67 10117.5,2147.5C 10115.4,2135.93 10113.9,2124.26 10113,2112.5C 10112.2,2105.66 10109.3,2099.83 10104.5,2095C 10097,2092.05 10089.1,2090.88 10081,2091.5C 10075.9,2091.51 10070.9,2091.85 10066,2092.5C 10066.2,2110.82 10066.4,2129.16 10066.5,2147.5C 10049.5,2147.5 10032.5,2147.5 10015.5,2147.5C 10015.5,2093.83 10015.5,2040.17 10015.5,1986.5 Z M 10065.5,2025.5 C 10065.5,2035.83 10065.5,2046.17 10065.5,2056.5C 10077.2,2056.67 10088.8,2056.5 10100.5,2056C 10108.2,2054.17 10112.5,2049.34 10113.5,2041.5C 10113.4,2033.91 10109.7,2029.08 10102.5,2027C 10090.2,2025.61 10077.9,2025.11 10065.5,2025.5 Z"/></g>
<g><path style="opacity:0.663" fill="#f1c6c8" d="M 590.5,2358.5 C 638.833,2359.17 687.167,2359.83 735.5,2360.5C 686.829,2360.83 638.162,2360.5 589.5,2359.5C 589.624,2358.89 589.957,2358.56 590.5,2358.5 Z"/></g>
<g><path style="opacity:0.228" fill="#ecaaac" d="M 1399.5,2361.5 C 1596.33,2360.33 1793.33,2360.17 1990.5,2361C 1989.96,2361.72 1989.29,2362.22 1988.5,2362.5C 1792.33,2361.5 1596,2361.17 1399.5,2361.5 Z"/></g>
<g><path style="opacity:0.227" fill="#ecaaac" d="M 6329.5,2359.5 C 6038.5,2361.5 5747.17,2362.17 5455.5,2361.5C 5746.74,2360.83 6038.07,2360.17 6329.5,2359.5 Z"/></g>
<g><path style="opacity:0.227" fill="#ecaaac" d="M 7084.5,2361.5 C 7280,2360.33 7475.67,2360.17 7671.5,2361C 7670.96,2361.72 7670.29,2362.22 7669.5,2362.5C 7474.67,2361.5 7279.67,2361.17 7084.5,2361.5 Z"/></g>
<g><path style="opacity:0.227" fill="#ecaaac" d="M 9700.5,2360.5 C 9442.17,2361.17 9183.83,2361.83 8925.5,2362.5C 8924.96,2362.44 8924.62,2362.11 8924.5,2361.5C 9183.17,2360.5 9441.83,2360.17 9700.5,2360.5 Z"/></g>
<g><path style="opacity:0.227" fill="#edafb0" d="M 6953.5,2916.5 C 6953.5,2917.17 6953.83,2917.5 6954.5,2917.5C 6954.44,2918.04 6954.11,2918.38 6953.5,2918.5C 6952.23,2917.74 6952.23,2917.08 6953.5,2916.5 Z"/></g>
<g><path style="opacity:0.227" fill="#ecaaac" d="M 3264.5,3269.5 C 3460.5,3271.5 3656.83,3272.17 3853.5,3271.5C 3657,3272.5 3460.33,3272.83 3263.5,3272.5C 3263.26,3271.21 3263.6,3270.21 3264.5,3269.5 Z"/></g>
</svg>
