<?xml version="1.0" encoding="UTF-8"?>
<!DOCTYPE svg PUBLIC "-//W3C//DTD SVG 1.1//EN" "http://www.w3.org/Graphics/SVG/1.1/DTD/svg11.dtd">
<svg xmlns="http://www.w3.org/2000/svg" version="1.1" width="10358px" height="4176px" style="shape-rendering:geometricPrecision; text-rendering:geometricPrecision; image-rendering:optimizeQuality; fill-rule:evenodd; clip-rule:evenodd" xmlns:xlink="http://www.w3.org/1999/xlink">
<g><path style="opacity:0.994" fill="#fefffe" d="M 5433.5,1.5 C 5555.9,-2.93915 5676.9,7.89419 5796.5,34C 5877.22,52.0348 5953.89,80.7014 6026.5,120C 6233.97,237.802 6319.14,415.302 6282,652.5C 6264.16,743.413 6228.49,826.413 6175,901.5C 6130.6,962.913 6079.43,1018.41 6021.5,1068C 5950.55,1127.32 5874.88,1179.99 5794.5,1226C 5648.55,1307.32 5496.21,1374.32 5337.5,1427C 5334.85,1427.5 5332.19,1427.66 5329.5,1427.5C 5329.21,1425.71 5329.55,1424.05 5330.5,1422.5C 5446.38,1365.77 5555.05,1298.27 5656.5,1220C 5730.15,1162.35 5794.99,1096.18 5851,1021.5C 5943.93,894.678 5988.27,752.344 5984,594.5C 5979.23,512.801 5949.56,441.801 5895,381.5C 5846.19,329.379 5789.02,288.879 5723.5,260C 5637.23,222.597 5547.23,199.264 5453.5,190C 5324.29,177.565 5195.63,181.898 5067.5,203C 4927.46,225.842 4790.8,261.509 4657.5,310C 4467.39,380.059 4285.39,466.726 4111.5,570C 4083.76,587.17 4056.09,603.67 4028.5,619.5C 4200.04,450.535 4394.7,314.035 4612.5,210C 4816.06,112.595 5029.73,48.2615 5253.5,17C 5313.43,9.20251 5373.43,4.03585 5433.5,1.5 Z"/></g>
<g><path style="opacity:0.995" fill="#fefffe" d="M 5403.5,304.5 C 5404.5,304.5 5405.5,304.5 5406.5,304.5C 5390.14,395.62 5373.14,486.62 5355.5,577.5C 5321.18,585.429 5286.85,592.429 5252.5,598.5C 5258.9,565.451 5254.06,534.117 5238,504.5C 5219.04,476.347 5192.38,462.014 5158,461.5C 5112.56,461.865 5079.23,481.865 5058,521.5C 5051.47,537.99 5049.8,554.99 5053,572.5C 5057.9,597.105 5063.9,621.438 5071,645.5C 5116.92,796.585 5165.25,946.919 5216,1096.5C 5232.78,1156.06 5231.11,1215.06 5211,1273.5C 5187.24,1332.59 5146.41,1375.42 5088.5,1402C 5060.47,1414.26 5031.47,1423.59 5001.5,1430C 4981.24,1434.38 4960.91,1438.38 4940.5,1442C 4840.49,1457.29 4740.49,1472.29 4640.5,1487C 4657.58,1397.61 4674.91,1308.27 4692.5,1219C 4727.76,1213.44 4762.92,1207.61 4798,1201.5C 4792.28,1236.27 4799.61,1267.94 4820,1296.5C 4847.29,1327.46 4881.13,1337.96 4921.5,1328C 4962.64,1317.53 4988.47,1291.69 4999,1250.5C 5002.39,1230.46 5002.05,1210.46 4998,1190.5C 4944.26,1028.94 4889.93,867.611 4835,706.5C 4819.57,658.678 4816.24,610.012 4825,560.5C 4841.65,480.862 4886.82,424.028 4960.5,390C 4988.92,377.861 5018.25,368.528 5048.5,362C 5069.07,357.487 5089.73,353.487 5110.5,350C 5208.44,335.675 5306.11,320.508 5403.5,304.5 Z"/></g>
<g><path style="opacity:0.994" fill="#fefffe" d="M 4728.5,372.5 C 4730.83,372.5 4733.17,372.5 4735.5,372.5C 4735.74,374.467 4735.41,376.301 4734.5,378C 4622.31,433.219 4516.64,498.219 4417.5,573C 4340.3,632.538 4272.13,701.038 4213,778.5C 4149.58,863.699 4107.58,958.699 4087,1063.5C 4043.17,1255.86 4104,1404.03 4269.5,1508C 4341.5,1550.12 4418.5,1579.45 4500.5,1596C 4606.89,1617.16 4714.22,1624.16 4822.5,1617C 4933.69,1609.86 5043.36,1592.86 5151.5,1566C 5321.75,1522.7 5486.08,1463.36 5644.5,1388C 5779.55,1323.58 5909.71,1251.42 6035,1171.5C 6035.17,1171.83 6035.33,1172.17 6035.5,1172.5C 5891.23,1316.98 5729.57,1437.81 5550.5,1535C 5304.08,1669.03 5041.41,1752.69 4762.5,1786C 4638.15,1799.93 4513.82,1799.93 4389.5,1786C 4286.19,1774.34 4186.86,1748.01 4091.5,1707C 4021.96,1676.59 3959.96,1635.26 3905.5,1583C 3807.56,1483.25 3762.4,1363.08 3770,1222.5C 3775.68,1127.45 3802.35,1038.79 3850,956.5C 3889.53,890.049 3937.37,829.882 3993.5,776C 4053.25,719.56 4117.58,669.227 4186.5,625C 4289.46,559.846 4397.46,503.512 4510.5,456C 4582.37,425.881 4655.03,398.048 4728.5,372.5 Z"/></g>
<g><path style="opacity:0.997" fill="#fefffe" d="M 10056.5,1801.5 C 10058.8,1801.5 10061.2,1801.5 10063.5,1801.5C 10063.5,2005.83 10063.5,2210.17 10063.5,2414.5C 9987.83,2414.5 9912.17,2414.5 9836.5,2414.5C 9833.36,2323.08 9798.03,2246.91 9730.5,2186C 9675.61,2140.53 9612.28,2117.7 9540.5,2117.5C 9425.03,2119.99 9330.86,2165.66 9258,2254.5C 9215.1,2308.93 9181.43,2368.93 9157,2434.5C 9123.34,2526.49 9100.67,2621.15 9089,2718.5C 9061.98,2945.82 9074.98,3170.82 9128,3393.5C 9144.89,3462.51 9167.56,3529.51 9196,3594.5C 9219.08,3647.04 9249.41,3694.71 9287,3737.5C 9347.06,3802.49 9420.23,3823.99 9506.5,3802C 9553.71,3789.1 9589.54,3761.6 9614,3719.5C 9620.54,3706.89 9624.87,3693.56 9627,3679.5C 9627.99,3486.14 9627.66,3292.81 9626,3099.5C 9612.59,3031.43 9572.09,2989.59 9504.5,2974C 9496.24,2972.43 9487.9,2971.59 9479.5,2971.5C 9479.5,2898.83 9479.5,2826.17 9479.5,2753.5C 9678.17,2753.5 9876.83,2753.5 10075.5,2753.5C 10075.8,3220.17 10075.5,3686.83 10074.5,4153.5C 9903.55,4125.12 9732.55,4096.95 9561.5,4069C 9426.05,4056.29 9297.72,4019.29 9176.5,3958C 9032.32,3881.82 8916.15,3774.99 8828,3637.5C 8749.69,3512.17 8695.69,3376.84 8666,3231.5C 8632.45,3075.03 8625.12,2917.36 8644,2758.5C 8663.68,2600.45 8716.01,2454.45 8801,2320.5C 8908.86,2158.32 9052.7,2039.49 9232.5,1964C 9311.47,1931.17 9393.14,1907.51 9477.5,1893C 9670.74,1863.13 9863.74,1832.63 10056.5,1801.5 Z"/></g>
<g><path style="opacity:0.998" fill="#fefffe" d="M 344.5,1860.5 C 376.251,1859.67 407.918,1860.84 439.5,1864C 1054.51,1942.25 1669.51,2020.58 2284.5,2099C 2344.11,2110.98 2399.44,2133.31 2450.5,2166C 2591.65,2256.67 2679.48,2384.5 2714,2549.5C 2730.02,2653.56 2726.02,2756.89 2702,2859.5C 2678.41,2962.22 2630.24,3051.05 2557.5,3126C 2485.84,3194.68 2401.51,3241.35 2304.5,3266C 2263.12,3276.45 2221.12,3282.79 2178.5,3285C 2048.5,3285.5 1918.5,3285.67 1788.5,3285.5C 1788.01,3394.53 1788.51,3503.53 1790,3612.5C 1796.41,3636.24 1809.24,3655.74 1828.5,3671C 1857.33,3691.84 1889.16,3706.34 1924,3714.5C 1924.5,3774.5 1924.67,3834.5 1924.5,3894.5C 1700.28,3919.34 1476.28,3946.01 1252.5,3974.5C 1252.5,3906.17 1252.5,3837.83 1252.5,3769.5C 1294.39,3764.31 1329.55,3746.31 1358,3715.5C 1374.86,3694.09 1384.86,3669.76 1388,3642.5C 1388.67,3328.5 1388.67,3014.5 1388,2700.5C 1384.36,2683.05 1375.53,2668.88 1361.5,2658C 1343.1,2644.64 1322.77,2635.3 1300.5,2630C 1286.01,2626.4 1271.35,2623.9 1256.5,2622.5C 1256.5,2549.83 1256.5,2477.17 1256.5,2404.5C 1432.5,2430.17 1608.5,2455.83 1784.5,2481.5C 1784.5,2672.5 1784.5,2863.5 1784.5,3054.5C 1890.5,3054.67 1996.5,3054.5 2102.5,3054C 2145.99,3049.85 2184.65,3034.18 2218.5,3007C 2264.97,2967.27 2298.47,2918.44 2319,2860.5C 2350.94,2767.48 2353.94,2673.48 2328,2578.5C 2291.43,2454.93 2211.26,2375.1 2087.5,2339C 2072.02,2334.77 2056.36,2331.44 2040.5,2329C 1559.17,2272 1077.83,2215 596.5,2158C 567.033,2157.28 540.7,2165.95 517.5,2184C 499.017,2203.74 488.85,2227.24 487,2254.5C 484.562,2277.25 488.229,2298.91 498,2319.5C 640.9,2603.63 784.566,2887.3 929,3170.5C 960.263,3231.42 991.93,3292.08 1024,3352.5C 1065.58,3431.81 1089.58,3516.14 1096,3605.5C 1101.68,3684.1 1087.35,3758.76 1053,3829.5C 1005.46,3917.35 934.298,3977.52 839.5,4010C 777.17,4030.8 713.504,4046.13 648.5,4056C 502.902,4077.13 357.236,4097.8 211.5,4118C 141.954,4128.31 72.6205,4139.81 3.5,4152.5C 2.5,3960.83 2.16667,3769.17 2.5,3577.5C 74.8333,3577.5 147.167,3577.5 219.5,3577.5C 222.693,3652.16 247.86,3718.16 295,3775.5C 350.691,3836.29 419.525,3860.12 501.5,3847C 585.489,3834.01 636.989,3786.17 656,3703.5C 660.009,3671.97 657.342,3640.97 648,3610.5C 639.435,3583.14 629.102,3556.47 617,3530.5C 605.922,3508.01 594.589,3485.68 583,3463.5C 552.598,3408.75 522.598,3353.75 493,3298.5C 341.728,2994.96 190.728,2691.29 40,2387.5C 9.40467,2317.59 -2.92866,2244.59 3,2168.5C 10.463,2096.93 38.463,2034.93 87,1982.5C 156.497,1907.84 242.331,1867.17 344.5,1860.5 Z"/></g>
<g><path style="opacity:0.997" fill="#fefffe" d="M 8629.5,2000.5 C 8632.52,2000.34 8635.52,2000.5 8638.5,2001C 8635.31,2060.77 8632.31,2120.6 8629.5,2180.5C 8555.29,2187.83 8508.79,2227.5 8490,2299.5C 8488.23,2308.1 8486.9,2316.77 8486,2325.5C 8485.5,2856.5 8485.33,3387.5 8485.5,3918.5C 8333.2,3902.34 8181.03,3885.34 8029,3867.5C 7963.96,3719.75 7900.29,3571.41 7838,3422.5C 7742.36,3193.9 7647.69,2964.9 7554,2735.5C 7553.33,2977.5 7553.33,3219.5 7554,3461.5C 7553.41,3503.88 7562.74,3543.88 7582,3581.5C 7599.46,3609.62 7623.63,3629.79 7654.5,3642C 7663.01,3645.34 7671.67,3648.17 7680.5,3650.5C 7681.5,3711.83 7681.83,3773.16 7681.5,3834.5C 7287.85,3795.81 6893.52,3766.14 6498.5,3745.5C 6498.33,3687.17 6498.5,3628.83 6499,3570.5C 6566.68,3566.14 6611.01,3531.81 6632,3467.5C 6637.26,3449.52 6640.6,3431.19 6642,3412.5C 6642.67,3101.17 6642.67,2789.83 6642,2478.5C 6633.95,2444.13 6614.78,2417.96 6584.5,2400C 6557.79,2385.09 6529.13,2378.26 6498.5,2379.5C 6498.5,2319.83 6498.5,2260.17 6498.5,2200.5C 6669.85,2187.59 6841.18,2174.59 7012.5,2161.5C 7013.01,2579.84 7013.84,2998.18 7015,3416.5C 7023.68,3508.85 7074.18,3558.35 7166.5,3565C 7214.41,3567.45 7253.91,3550.62 7285,3514.5C 7297,3498.49 7304,3480.49 7306,3460.5C 7306.99,3117.48 7306.66,2774.48 7305,2431.5C 7297.01,2392.17 7274.84,2364.01 7238.5,2347C 7216.5,2337.5 7193.5,2332.67 7169.5,2332.5C 7168.84,2272.45 7169.51,2212.62 7171.5,2153C 7354.34,2136.23 7537.17,2119.39 7720,2102.5C 7721.5,2102.83 7723,2103.17 7724.5,2103.5C 7895.33,2493.17 8066.17,2882.83 8237,3272.5C 8237.99,2968.81 8237.66,2665.15 8236,2361.5C 8225.18,2305.35 8192.68,2268.18 8138.5,2250C 8123.46,2245.77 8108.12,2243.6 8092.5,2243.5C 8092.5,2183.5 8092.5,2123.5 8092.5,2063.5C 8271.57,2041.91 8450.57,2020.91 8629.5,2000.5 Z"/></g>
<g><path style="opacity:0.997" fill="#fefffe" d="M 2897.5,2149.5 C 3082.16,2163.65 3266.82,2177.65 3451.5,2191.5C 3599.22,2605.84 3747.06,3020.17 3895,3434.5C 3910.52,3473.19 3939.02,3494.52 3980.5,3498.5C 4008.1,3496.69 4033.1,3487.86 4055.5,3472C 4075.56,3454.38 4087.06,3432.22 4090,3405.5C 4091,3397.53 4091.66,3389.53 4092,3381.5C 4092.67,3092.83 4092.67,2804.17 4092,2515.5C 4089.18,2482.01 4073.68,2456.18 4045.5,2438C 4015.51,2419.5 3982.84,2410 3947.5,2409.5C 3948.98,2345.5 3950.31,2281.5 3951.5,2217.5C 4129.17,2224.37 4306.84,2231.37 4484.5,2238.5C 4484.5,2652.5 4484.5,3066.5 4484.5,3480.5C 4539.2,3480.66 4593.86,3482 4648.5,3484.5C 4719.7,3479.49 4769.2,3444.16 4797,3378.5C 4812.37,3338.64 4819.87,3297.3 4819.5,3254.5C 4891.83,3254.5 4964.17,3254.5 5036.5,3254.5C 5036.5,3402.5 5036.5,3550.5 5036.5,3698.5C 4925.82,3697.75 4815.16,3698.92 4704.5,3702C 4320.57,3711.28 3936.9,3726.94 3553.5,3749C 3496.46,3752.68 3439.46,3756.85 3382.5,3761.5C 3382.5,3694.5 3382.5,3627.5 3382.5,3560.5C 3404.56,3562.43 3426.23,3560.26 3447.5,3554C 3476.73,3544.13 3489.56,3523.96 3486,3493.5C 3478.18,3456.88 3470.68,3420.22 3463.5,3383.5C 3296.17,3383.5 3128.83,3383.5 2961.5,3383.5C 2948.44,3416.5 2935.27,3449.5 2922,3482.5C 2910.03,3534.72 2928.19,3572.22 2976.5,3595C 2993.68,3602.56 3011.52,3605.06 3030,3602.5C 3030.83,3663.84 3030.67,3725.17 3029.5,3786.5C 2832.54,3805.41 2635.54,3824.07 2438.5,3842.5C 2439.81,3769.83 2441.14,3697.17 2442.5,3624.5C 2474.02,3620.83 2503.02,3610.33 2529.5,3593C 2580.43,3559.07 2616.93,3513.57 2639,3456.5C 2760.01,3123.48 2881.01,2790.48 3002,2457.5C 3008.41,2424.05 2998.24,2396.89 2971.5,2376C 2949.2,2360.84 2924.53,2352.34 2897.5,2350.5C 2897.5,2283.5 2897.5,2216.5 2897.5,2149.5 Z M 3220.5,2666.5 C 3275.87,2828.29 3330.87,2990.29 3385.5,3152.5C 3272.83,3151.36 3160.16,3149.86 3047.5,3148C 3105.66,2987.67 3163.33,2827.17 3220.5,2666.5 Z"/></g>
<g><path style="opacity:0.997" fill="#fefffe" d="M 5019.5,2247.5 C 5304.84,2248.56 5590.17,2250.06 5875.5,2252C 6035.75,2263.05 6168.59,2328.55 6274,2448.5C 6350.46,2539.43 6401.46,2643.43 6427,2760.5C 6457.28,2904.24 6456.95,3047.9 6426,3191.5C 6397.64,3318.92 6338.97,3429.59 6250,3523.5C 6130.44,3642.16 5985.94,3701.83 5816.5,3702.5C 5598.84,3700.73 5381.17,3699.4 5163.5,3698.5C 5163.67,3344.17 5163.5,2989.83 5163,2635.5C 5161.73,2600.86 5155.39,2567.2 5144,2534.5C 5133.14,2503.25 5113.64,2479.08 5085.5,2462C 5064.75,2451.55 5042.75,2447.05 5019.5,2448.5C 5019.5,2381.5 5019.5,2314.5 5019.5,2247.5 Z M 5547.5,2469.5 C 5621.83,2469.33 5696.17,2469.5 5770.5,2470C 5811.26,2476.39 5847.92,2492.05 5880.5,2517C 5920.01,2548.83 5951.84,2587 5976,2631.5C 6003.94,2685.33 6023.94,2742 6036,2801.5C 6059.1,2914.92 6062.77,3028.92 6047,3143.5C 6036.16,3213.03 6012.5,3277.69 5976,3337.5C 5939.52,3394.64 5891.02,3438.48 5830.5,3469C 5807.38,3479.71 5783.05,3484.04 5757.5,3482C 5687.5,3483.21 5617.5,3484.05 5547.5,3484.5C 5547.5,3146.17 5547.5,2807.83 5547.5,2469.5 Z"/></g>
<g><path style="opacity:0.961" fill="#fefffe" d="M 10246.5,3968.5 C 10295,3968.55 10329.2,3990.55 10349,4034.5C 10364.9,4086.48 10350.7,4127.98 10306.5,4159C 10280.4,4174.07 10252.8,4177.73 10223.5,4170C 10180.2,4155.32 10156,4125.15 10151,4079.5C 10150,4030.89 10171.5,3996.39 10215.5,3976C 10225.6,3972.05 10236,3969.55 10246.5,3968.5 Z M 10241.5,3991.5 C 10288.7,3989.51 10317.5,4011.51 10328,4057.5C 10332.2,4093.95 10319,4122.12 10288.5,4142C 10253.1,4158.74 10221.9,4152.9 10195,4124.5C 10172,4091.75 10170.7,4058.09 10191,4023.5C 10203.8,4006.34 10220.7,3995.67 10241.5,3991.5 Z M 10236.5,4029.5 C 10243.8,4029.33 10251.2,4029.5 10258.5,4030C 10272.4,4033.54 10276.9,4042.04 10272,4055.5C 10269,4059.09 10265.2,4061.26 10260.5,4062C 10251.1,4062.83 10241.8,4062.67 10232.5,4061.5C 10234.2,4050.89 10235.5,4040.22 10236.5,4029.5 Z"/></g>
<g><path style="opacity:0.957" fill="#fefffe" d="M 10210.5,4015.5 C 10229.9,4015.12 10249.2,4015.62 10268.5,4017C 10289.9,4021.53 10299,4034.7 10296,4056.5C 10293.3,4072.51 10283.8,4080.68 10267.5,4081C 10277.3,4097.42 10287,4113.92 10296.5,4130.5C 10288.8,4131.83 10281.2,4131.83 10273.5,4130.5C 10264,4114.17 10254.5,4097.83 10245,4081.5C 10240.9,4080.54 10236.8,4080.2 10232.5,4080.5C 10232.5,4097.5 10232.5,4114.5 10232.5,4131.5C 10225.2,4131.5 10217.8,4131.5 10210.5,4131.5C 10210.5,4092.83 10210.5,4054.17 10210.5,4015.5 Z M 10236.5,4029.5 C 10235.5,4040.22 10234.2,4050.89 10232.5,4061.5C 10241.8,4062.67 10251.1,4062.83 10260.5,4062C 10265.2,4061.26 10269,4059.09 10272,4055.5C 10276.9,4042.04 10272.4,4033.54 10258.5,4030C 10251.2,4029.5 10243.8,4029.33 10236.5,4029.5 Z"/></g>
</svg>
