<?xml version="1.0" encoding="UTF-8"?>
<!DOCTYPE svg PUBLIC "-//W3C//DTD SVG 1.1//EN" "http://www.w3.org/Graphics/SVG/1.1/DTD/svg11.dtd">
<svg xmlns="http://www.w3.org/2000/svg" version="1.1" width="5000px" height="1667px" style="shape-rendering:geometricPrecision; text-rendering:geometricPrecision; image-rendering:optimizeQuality; fill-rule:evenodd; clip-rule:evenodd" xmlns:xlink="http://www.w3.org/1999/xlink">
<g><path style="opacity:0.994" fill="#fefffe" d="M 607.5,633.5 C 907.167,633.333 1206.83,633.5 1506.5,634C 1496.07,663.112 1485.74,692.279 1475.5,721.5C 1380.5,722.5 1285.5,722.833 1190.5,722.5C 1146.66,845.838 1102.33,969.005 1057.5,1092C 955.834,1092.5 854.167,1092.67 752.5,1092.5C 796.335,969.162 840.669,845.995 885.5,723C 782.167,722.667 678.833,722.333 575.5,722C 586.665,692.672 597.331,663.172 607.5,633.5 Z"/></g>
<g><path style="opacity:0.995" fill="#fefffe" d="M 1562.5,633.5 C 1840.17,633.333 2117.83,633.5 2395.5,634C 2413.23,634.95 2427.73,642.116 2439,655.5C 2445.13,666.407 2447.13,678.074 2445,690.5C 2425.84,749.65 2404.51,807.983 2381,865.5C 2368,886.808 2349.17,899.974 2324.5,905C 2285.2,906.291 2245.86,906.958 2206.5,907C 2260.5,967.667 2314.5,1028.33 2368.5,1089C 2247.5,1089.67 2126.5,1089.67 2005.5,1089C 1941.95,1008.08 1878.29,927.243 1814.5,846.5C 1891.83,845.667 1969.16,845.167 2046.5,845C 2067.39,841.307 2082.22,829.807 2091,810.5C 2099.83,790.668 2106.67,770.168 2111.5,749C 2109.65,734.153 2101.32,725.486 2086.5,723C 2006.5,722.167 1926.5,722.333 1846.5,723.5C 1801.57,846.307 1757.23,969.307 1713.5,1092.5C 1607.83,1092.67 1502.17,1092.5 1396.5,1092C 1451.94,939.193 1507.27,786.36 1562.5,633.5 Z"/></g>
<g><path style="opacity:0.993" fill="#fefffe" d="M 2539.5,633.5 C 2815.5,633.333 3091.5,633.5 3367.5,634C 3356.7,663.098 3346.04,692.264 3335.5,721.5C 3184.84,721.437 3034.17,721.604 2883.5,722C 2863.49,722.167 2843.49,722.667 2823.5,723.5C 2812.36,754.244 2801.03,784.91 2789.5,815.5C 2960.17,816.5 3130.83,816.833 3301.5,816.5C 3291.33,846.172 3280.66,875.672 3269.5,905C 3098.5,905.5 2927.5,905.667 2756.5,905.5C 2750.17,924.323 2743.34,942.99 2736,961.5C 2730.58,981.822 2737.74,995.655 2757.5,1003C 2916.13,1004.49 3074.8,1004.99 3233.5,1004.5C 3223.13,1033.76 3212.47,1062.93 3201.5,1092C 2977.5,1092.67 2753.5,1092.67 2529.5,1092C 2519.08,1090.86 2509.42,1087.53 2500.5,1082C 2492.07,1075.57 2484.23,1068.4 2477,1060.5C 2462.04,1042.54 2446.71,1024.87 2431,1007.5C 2422.75,995.039 2419.75,981.372 2422,966.5C 2423.4,957.584 2425.73,948.917 2429,940.5C 2466.14,838.257 2502.97,735.924 2539.5,633.5 Z"/></g>
<g><path style="opacity:0.995" fill="#fefffe" d="M 3436.5,633.5 C 3544.5,633.5 3652.5,633.5 3760.5,633.5C 3706.09,786.335 3651.09,939.002 3595.5,1091.5C 3487.5,1092.5 3379.5,1092.83 3271.5,1092.5C 3326.3,939.436 3381.3,786.436 3436.5,633.5 Z"/></g>
<g><path style="opacity:0.993" fill="#fefffe" d="M 4042.5,633.5 C 4169.5,633.333 4296.5,633.5 4423.5,634C 4299.67,706.081 4176,778.414 4052.5,851C 4123.85,930.885 4194.85,1011.05 4265.5,1091.5C 4140.83,1092.67 4016.17,1092.83 3891.5,1092C 3828.05,1010.26 3764.71,928.424 3701.5,846.5C 3815.03,775.239 3928.69,704.239 4042.5,633.5 Z"/></g>
</svg>
