<?xml version="1.0" encoding="UTF-8"?>
<!DOCTYPE svg PUBLIC "-//W3C//DTD SVG 1.1//EN" "http://www.w3.org/Graphics/SVG/1.1/DTD/svg11.dtd">
<svg xmlns="http://www.w3.org/2000/svg" version="1.1" width="5000px" height="3333px" style="shape-rendering:geometricPrecision; text-rendering:geometricPrecision; image-rendering:optimizeQuality; fill-rule:evenodd; clip-rule:evenodd" xmlns:xlink="http://www.w3.org/1999/xlink">
<g><path style="opacity:0.997" fill="#fefffe" d="M 1838.5,554.5 C 1840.17,554.5 1841.83,554.5 1843.5,554.5C 1843.01,733.851 1843.51,913.185 1845,1092.5C 1855.1,1163.68 1883.77,1226.02 1931,1279.5C 2146.59,1228.72 2365.09,1207.22 2586.5,1215C 2750.39,1220.01 2912.05,1241.51 3071.5,1279.5C 3118.05,1226.05 3146.55,1164.05 3157,1093.5C 3158.52,1077.2 3159.35,1060.87 3159.5,1044.5C 3158.53,881.17 3158.2,717.836 3158.5,554.5C 3252.02,567.713 3344.02,587.88 3434.5,615C 3577.69,658.393 3716.03,713.727 3849.5,781C 3870.92,792.119 3891.42,804.619 3911,818.5C 3909.86,862.209 3901.52,904.543 3886,945.5C 3867.43,994.339 3842.43,1039.34 3811,1080.5C 3765.39,1139.12 3712.89,1190.62 3653.5,1235C 3572.25,1294.99 3484.91,1345.32 3391.5,1386C 3502.52,1433.3 3604.19,1494.96 3696.5,1571C 3746.74,1613.23 3790.57,1661.06 3828,1714.5C 3859.36,1759.88 3882.69,1809.22 3898,1862.5C 3906.42,1892.34 3910.92,1922.67 3911.5,1953.5C 3871.39,1979.71 3829.39,2002.88 3785.5,2023C 3651.25,2085.45 3512.58,2136.11 3369.5,2175C 3299.99,2193.34 3229.66,2207.5 3158.5,2217.5C 3158.5,2088 3158.83,1958.5 3159.5,1829C 3159.33,1785.83 3159.17,1742.67 3159,1699.5C 3155.09,1639.1 3136.42,1583.77 3103,1533.5C 3093.6,1519.43 3083.44,1505.93 3072.5,1493C 2691.82,1580.32 2311.15,1580.32 1930.5,1493C 1883.21,1547.43 1854.71,1610.6 1845,1682.5C 1843.85,1753.98 1843.35,1825.48 1843.5,1897C 1843.69,2003.83 1844.02,2110.67 1844.5,2217.5C 1715.48,2198.58 1589.48,2167.41 1466.5,2124C 1365.3,2088.74 1266.64,2047.4 1170.5,2000C 1143.35,1985.93 1117.01,1970.6 1091.5,1954C 1093.22,1897.95 1106.05,1844.45 1130,1793.5C 1163.95,1724.11 1208.78,1662.61 1264.5,1609C 1335.25,1542.92 1413.25,1486.92 1498.5,1441C 1535.52,1421.32 1573.19,1402.99 1611.5,1386C 1495.02,1336.68 1389.02,1271.35 1293.5,1190C 1232.14,1136.34 1181.64,1074.17 1142,1003.5C 1110.8,945.712 1093.8,884.046 1091,818.5C 1107.08,806.873 1123.91,796.373 1141.5,787C 1207.1,752.201 1274.43,721.201 1343.5,694C 1468.61,642.742 1597.28,602.742 1729.5,574C 1765.8,566.504 1802.13,560.004 1838.5,554.5 Z M 2498.5,1272.5 C 2608.5,1271.19 2715.5,1288.36 2819.5,1324C 2864.34,1340.42 2907.01,1361.09 2947.5,1386C 2859.73,1438.48 2765.07,1472.15 2663.5,1487C 2570.75,1500 2477.75,1502 2384.5,1493C 2283.31,1483.04 2187.31,1455.37 2096.5,1410C 2082.5,1402 2068.5,1394 2054.5,1386C 2133.19,1338.65 2217.85,1306.65 2308.5,1290C 2371.47,1278.53 2434.8,1272.7 2498.5,1272.5 Z"/></g>
<g><path style="opacity:0.99" fill="#fefffe" d="M 3510.5,2540.5 C 3570.17,2540.33 3629.83,2540.5 3689.5,2541C 3732.52,2545.79 3755.02,2569.96 3757,2613.5C 3757.91,2645.19 3757.58,2676.85 3756,2708.5C 3754.78,2727.5 3748.45,2744.5 3737,2759.5C 3727.64,2768.59 3716.48,2774.09 3703.5,2776C 3633.83,2776.67 3564.17,2776.67 3494.5,2776C 3471.72,2772.22 3456.55,2759.39 3449,2737.5C 3443.91,2721.23 3441.25,2704.57 3441,2687.5C 3440.33,2665.83 3440.33,2644.17 3441,2622.5C 3441.23,2604.91 3445.23,2588.24 3453,2572.5C 3466.85,2552.32 3486.01,2541.66 3510.5,2540.5 Z M 3554.5,2600.5 C 3585.17,2600.33 3615.84,2600.5 3646.5,2601C 3666.23,2602.4 3677.07,2612.9 3679,2632.5C 3679.84,2649.86 3679.51,2667.19 3678,2684.5C 3676.83,2696.02 3671.66,2705.19 3662.5,2712C 3659.64,2713.4 3656.64,2714.4 3653.5,2715C 3618.17,2715.67 3582.83,2715.67 3547.5,2715C 3537.31,2713.14 3530.47,2707.31 3527,2697.5C 3523.13,2683.45 3521.63,2669.12 3522.5,2654.5C 3522.42,2644.79 3522.92,2635.12 3524,2625.5C 3528.5,2610.18 3538.67,2601.84 3554.5,2600.5 Z"/></g>
<g><path style="opacity:0.987" fill="#fefffe" d="M 604.5,2541.5 C 624.169,2541.33 643.836,2541.5 663.5,2542C 667.77,2543.27 670.27,2546.1 671,2550.5C 671.333,2596.83 671.667,2643.17 672,2689.5C 674.5,2702.67 682.333,2710.5 695.5,2713C 727.167,2713.67 758.833,2713.67 790.5,2713C 803.667,2710.5 811.5,2702.67 814,2689.5C 814.333,2643.17 814.667,2596.83 815,2550.5C 815.73,2546.1 818.23,2543.27 822.5,2542C 842.5,2541.33 862.5,2541.33 882.5,2542C 885.937,2543.1 888.437,2545.27 890,2548.5C 890.667,2599.83 890.667,2651.17 890,2702.5C 884.07,2749.09 857.57,2773.59 810.5,2776C 762.146,2776.95 713.812,2776.62 665.5,2775C 621.803,2768.3 598.636,2742.8 596,2698.5C 595.333,2649.17 595.333,2599.83 596,2550.5C 597.015,2545.65 599.849,2542.65 604.5,2541.5 Z"/></g>
<g><path style="opacity:0.989" fill="#fefffe" d="M 926.5,2541.5 C 958.168,2541.33 989.835,2541.5 1021.5,2542C 1031.5,2545.67 1040.16,2551.34 1047.5,2559C 1053.33,2565.5 1059.17,2572 1065,2578.5C 1081.24,2599.99 1097.24,2621.66 1113,2643.5C 1130.04,2663.54 1146.71,2683.88 1163,2704.5C 1163.02,2652.45 1163.68,2600.45 1165,2548.5C 1166.39,2545.06 1168.89,2542.89 1172.5,2542C 1193.23,2541.04 1213.9,2541.37 1234.5,2543C 1236.38,2544.54 1237.88,2546.38 1239,2548.5C 1239.5,2624.5 1239.67,2700.5 1239.5,2776.5C 1205.5,2776.67 1171.5,2776.5 1137.5,2776C 1126.73,2774.24 1117.56,2769.4 1110,2761.5C 1070.76,2710.92 1030.76,2660.92 990,2611.5C 989.667,2664.17 989.333,2716.83 989,2769.5C 987.332,2773.17 984.499,2775.33 980.5,2776C 962.833,2776.67 945.167,2776.67 927.5,2776C 923.501,2775.33 920.668,2773.17 919,2769.5C 918.333,2696.17 918.333,2622.83 919,2549.5C 920.353,2545.65 922.853,2542.98 926.5,2541.5 Z"/></g>
<g><path style="opacity:0.983" fill="#fefffe" d="M 1266.5,2541.5 C 1339.5,2541.33 1412.5,2541.5 1485.5,2542C 1508.29,2542.82 1528.62,2550.15 1546.5,2564C 1561.25,2578.34 1569.42,2595.84 1571,2616.5C 1571.92,2647.86 1571.59,2679.19 1570,2710.5C 1565.49,2750.67 1542.99,2772.17 1502.5,2775C 1456.18,2776.77 1409.85,2776.94 1363.5,2775.5C 1355.73,2760.29 1348.23,2744.96 1341,2729.5C 1340.5,2745.16 1340.33,2760.83 1340.5,2776.5C 1315.83,2776.5 1291.17,2776.5 1266.5,2776.5C 1266.5,2698.17 1266.5,2619.83 1266.5,2541.5 Z M 1340.5,2605.5 C 1384.5,2605.33 1428.5,2605.5 1472.5,2606C 1483.12,2607.95 1489.95,2614.12 1493,2624.5C 1497.56,2644.98 1498.56,2665.65 1496,2686.5C 1493.89,2698.93 1487.05,2707.43 1475.5,2712C 1430.55,2713.48 1385.55,2713.98 1340.5,2713.5C 1340.5,2677.5 1340.5,2641.5 1340.5,2605.5 Z"/></g>
<g><path style="opacity:0.986" fill="#fefffe" d="M 1903.5,2541.5 C 1979.17,2541.33 2054.83,2541.5 2130.5,2542C 2159.26,2543.46 2176.43,2558.29 2182,2586.5C 2185.59,2609.24 2185.26,2631.91 2181,2654.5C 2178.53,2662.98 2173.7,2669.81 2166.5,2675C 2162.29,2677.6 2158.29,2680.43 2154.5,2683.5C 2169.46,2688.63 2178.63,2698.97 2182,2714.5C 2183.96,2725.91 2184.8,2737.41 2184.5,2749C 2184.62,2757.24 2184.12,2765.41 2183,2773.5C 2182.1,2774.7 2180.93,2775.53 2179.5,2776C 2156.83,2776.67 2134.17,2776.67 2111.5,2776C 2107.83,2774.33 2105.67,2771.5 2105,2767.5C 2104.89,2755.79 2104.22,2744.12 2103,2732.5C 2101.33,2726.16 2097.49,2721.66 2091.5,2719C 2058.5,2718.67 2025.5,2718.33 1992.5,2718C 1983.7,2702.9 1975.53,2687.4 1968,2671.5C 1967.99,2705.25 1967.32,2738.92 1966,2772.5C 1964.2,2774.32 1962.03,2775.48 1959.5,2776C 1937.5,2776.67 1915.5,2776.67 1893.5,2776C 1890.67,2775.17 1888.83,2773.33 1888,2770.5C 1887.33,2699.83 1887.33,2629.17 1888,2558.5C 1889.58,2549.43 1894.74,2543.76 1903.5,2541.5 Z M 1973.5,2604.5 C 2012.17,2604.33 2050.83,2604.5 2089.5,2605C 2097.94,2604.79 2103.44,2608.62 2106,2616.5C 2107.21,2624.98 2107.21,2633.31 2106,2641.5C 2104.1,2646.4 2100.6,2649.57 2095.5,2651C 2087.04,2653.63 2078.38,2654.97 2069.5,2655C 2035.17,2655.5 2000.83,2655.67 1966.5,2655.5C 1966.33,2640.16 1966.5,2624.83 1967,2609.5C 1968.56,2606.98 1970.73,2605.31 1973.5,2604.5 Z"/></g>
<g><path style="opacity:0.987" fill="#fefffe" d="M 2727.5,2541.5 C 2803.5,2541.33 2879.5,2541.5 2955.5,2542C 2981.32,2542.98 2997.82,2555.81 3005,2580.5C 3010.53,2604.43 3010.86,2628.43 3006,2652.5C 3004.08,2660.17 3000.25,2666.67 2994.5,2672C 2989.31,2676.03 2983.97,2679.86 2978.5,2683.5C 2993.74,2687.91 3002.9,2697.91 3006,2713.5C 3010.08,2733.49 3010.41,2753.49 3007,2773.5C 3006.17,2774.33 3005.33,2775.17 3004.5,2776C 2981.5,2776.67 2958.5,2776.67 2935.5,2776C 2932.57,2774.74 2930.74,2772.57 2930,2769.5C 2928.76,2758.22 2928.09,2746.89 2928,2735.5C 2926.82,2727.6 2922.65,2722.1 2915.5,2719C 2882.49,2718.83 2849.49,2718.33 2816.5,2717.5C 2808.41,2702.99 2800.58,2688.33 2793,2673.5C 2792.98,2706.23 2792.31,2738.89 2791,2771.5C 2789.24,2774.27 2786.74,2775.77 2783.5,2776C 2760.75,2776.98 2738.08,2776.65 2715.5,2775C 2714.67,2774.17 2713.83,2773.33 2713,2772.5C 2712.33,2700.17 2712.33,2627.83 2713,2555.5C 2715.11,2547.88 2719.95,2543.22 2727.5,2541.5 Z M 2797.5,2604.5 C 2838.2,2604.03 2878.87,2604.53 2919.5,2606C 2927.12,2608.29 2930.95,2613.46 2931,2621.5C 2935.7,2642.12 2927.54,2652.96 2906.5,2654C 2867.85,2655.42 2829.19,2655.92 2790.5,2655.5C 2790.33,2640.5 2790.5,2625.5 2791,2610.5C 2791.31,2609.23 2791.81,2608.07 2792.5,2607C 2794.31,2606.24 2795.98,2605.41 2797.5,2604.5 Z"/></g>
<g><path style="opacity:0.986" fill="#fefffe" d="M 3041.5,2541.5 C 3071.17,2541.33 3100.84,2541.5 3130.5,2542C 3137.01,2542.94 3142.68,2545.61 3147.5,2550C 3152.27,2555.05 3156.44,2560.55 3160,2566.5C 3179.18,2608.53 3200.18,2649.53 3223,2689.5C 3246.47,2648.9 3268.13,2607.24 3288,2564.5C 3293.9,2552.93 3303.07,2545.43 3315.5,2542C 3345.5,2541.33 3375.5,2541.33 3405.5,2542C 3410.33,2542.83 3413.17,2545.67 3414,2550.5C 3414.99,2624.22 3414.66,2697.89 3413,2771.5C 3411.05,2773.89 3408.55,2775.39 3405.5,2776C 3388.17,2776.67 3370.83,2776.67 3353.5,2776C 3349.03,2775.69 3345.87,2773.52 3344,2769.5C 3343.67,2718.5 3343.33,2667.5 3343,2616.5C 3313.71,2669.59 3284.54,2722.75 3255.5,2776C 3233.49,2776.83 3211.49,2776.67 3189.5,2775.5C 3161.25,2722.67 3132.75,2670.01 3104,2617.5C 3103.99,2668.56 3103.32,2719.56 3102,2770.5C 3099.97,2773.52 3097.14,2775.35 3093.5,2776C 3076.17,2776.67 3058.83,2776.67 3041.5,2776C 3036.29,2775.33 3033.13,2772.5 3032,2767.5C 3031.33,2695.5 3031.33,2623.5 3032,2551.5C 3033.31,2546.35 3036.48,2543.02 3041.5,2541.5 Z"/></g>
<g><path style="opacity:0.988" fill="#fefffe" d="M 3790.5,2541.5 C 3810.17,2541.33 3829.84,2541.5 3849.5,2542C 3854.79,2543.38 3857.63,2546.88 3858,2552.5C 3858.33,2598.83 3858.67,2645.17 3859,2691.5C 3862.28,2703.11 3869.78,2710.28 3881.5,2713C 3897.5,2713.17 3913.5,2713.33 3929.5,2713.5C 3946.88,2713.64 3964.22,2713.14 3981.5,2712C 3993.2,2707.61 3999.7,2699.11 4001,2686.5C 4001.01,2639.75 4001.68,2593.08 4003,2546.5C 4004.64,2544.19 4006.8,2542.69 4009.5,2542C 4029.17,2541.33 4048.83,2541.33 4068.5,2542C 4072.9,2542.73 4075.73,2545.23 4077,2549.5C 4077.67,2599.17 4077.67,2648.83 4077,2698.5C 4072.76,2747.74 4045.92,2773.58 3996.5,2776C 3951.83,2776.67 3907.17,2776.67 3862.5,2776C 3815.43,2773.59 3788.93,2749.09 3783,2702.5C 3782.33,2651.5 3782.33,2600.5 3783,2549.5C 3784.33,2545.67 3786.83,2543.01 3790.5,2541.5 Z"/></g>
<g><path style="opacity:0.986" fill="#fefffe" d="M 4121.5,2541.5 C 4197.5,2541.33 4273.5,2541.5 4349.5,2542C 4375.12,2542.55 4391.62,2555.05 4399,2579.5C 4404.16,2602.69 4404.83,2626.02 4401,2649.5C 4399.04,2658.79 4394.54,2666.63 4387.5,2673C 4382.5,2676.5 4377.5,2680 4372.5,2683.5C 4387.27,2687.77 4396.44,2697.44 4400,2712.5C 4403.31,2730.69 4404.31,2749.02 4403,2767.5C 4403.18,2771.32 4401.68,2774.15 4398.5,2776C 4387.17,2776.17 4375.83,2776.33 4364.5,2776.5C 4352.1,2776.64 4339.77,2776.14 4327.5,2775C 4324.48,2771.79 4322.98,2767.95 4323,2763.5C 4322.32,2757.31 4322.49,2751.15 4323.5,2745C 4323.69,2735.72 4320.69,2727.72 4314.5,2721C 4312.91,2720.14 4311.25,2719.47 4309.5,2719C 4276.49,2718.83 4243.49,2718.33 4210.5,2717.5C 4202.16,2702.82 4194.32,2687.82 4187,2672.5C 4186.99,2705.92 4186.32,2739.25 4185,2772.5C 4183.2,2774.32 4181.03,2775.48 4178.5,2776C 4155.41,2776.98 4132.41,2776.65 4109.5,2775C 4108.3,2774.1 4107.47,2772.93 4107,2771.5C 4106.33,2699.83 4106.33,2628.17 4107,2556.5C 4109.02,2548.65 4113.85,2543.65 4121.5,2541.5 Z M 4192.5,2604.5 C 4232.87,2604.03 4273.2,2604.53 4313.5,2606C 4318.68,2606.83 4322.18,2609.66 4324,2614.5C 4326.33,2624.64 4325.99,2634.64 4323,2644.5C 4316.74,2650.37 4309.24,2653.54 4300.5,2654C 4261.85,2655.42 4223.19,2655.92 4184.5,2655.5C 4184.33,2640.83 4184.5,2626.16 4185,2611.5C 4186.12,2607.54 4188.62,2605.2 4192.5,2604.5 Z"/></g>
<g><path style="opacity:0.985" fill="#fefffe" d="M 1640.5,2543.5 C 1710.17,2543.33 1779.83,2543.5 1849.5,2544C 1851.62,2545.12 1853.46,2546.62 1855,2548.5C 1856.62,2564.1 1856.95,2579.77 1856,2595.5C 1855.17,2599 1853,2601.17 1849.5,2602C 1794.17,2602.33 1738.83,2602.67 1683.5,2603C 1678.21,2603.96 1675.38,2607.12 1675,2612.5C 1674.14,2618.59 1674.47,2624.59 1676,2630.5C 1677.17,2631.89 1678.67,2632.73 1680.5,2633C 1727.17,2633.17 1773.84,2633.67 1820.5,2634.5C 1828.53,2649.22 1836.03,2664.22 1843,2679.5C 1844.04,2682.64 1843.21,2685.14 1840.5,2687C 1815.38,2688.15 1790.21,2688.65 1765,2688.5C 1741.17,2688.17 1717.33,2687.83 1693.5,2687.5C 1687.26,2674.68 1680.76,2662.01 1674,2649.5C 1673.33,2670.17 1673.33,2690.83 1674,2711.5C 1674.79,2714.58 1676.62,2716.75 1679.5,2718C 1736.5,2718.33 1793.5,2718.67 1850.5,2719C 1856.58,2720.42 1859.75,2724.25 1860,2730.5C 1860.9,2743.88 1860.57,2757.21 1859,2770.5C 1857.88,2772.62 1856.38,2774.46 1854.5,2776C 1782.89,2777.66 1711.22,2777.99 1639.5,2777C 1622.73,2775.21 1610.9,2766.71 1604,2751.5C 1601.05,2743.42 1599.38,2735.09 1599,2726.5C 1598.33,2680.17 1598.33,2633.83 1599,2587.5C 1602.12,2562.55 1615.95,2547.88 1640.5,2543.5 Z"/></g>
<g><path style="opacity:0.987" fill="#fefffe" d="M 2471.5,2543.5 C 2498.17,2543.33 2524.84,2543.5 2551.5,2544C 2560.3,2546.32 2567.8,2550.82 2574,2557.5C 2578.39,2562.89 2582.39,2568.56 2586,2574.5C 2620.24,2639.31 2655.24,2703.65 2691,2767.5C 2691.5,2770.82 2691.67,2774.15 2691.5,2777.5C 2664.83,2777.83 2638.16,2777.5 2611.5,2776.5C 2604.29,2763.25 2596.96,2750.09 2589.5,2737C 2557.5,2736.67 2525.5,2736.33 2493.5,2736C 2486.97,2721.11 2480.31,2706.28 2473.5,2691.5C 2457.64,2720.05 2441.64,2748.55 2425.5,2777C 2398.84,2777.5 2372.17,2777.67 2345.5,2777.5C 2345.09,2773.54 2345.92,2769.87 2348,2766.5C 2389.18,2692.14 2430.35,2617.81 2471.5,2543.5 Z M 2518.5,2608.5 C 2520.59,2608.56 2522.09,2609.56 2523,2611.5C 2534.37,2633.75 2545.87,2655.91 2557.5,2678C 2556.5,2679 2555.5,2680 2554.5,2681C 2530.83,2681.67 2507.17,2681.67 2483.5,2681C 2482.5,2680 2481.5,2679 2480.5,2678C 2493.31,2654.89 2505.97,2631.72 2518.5,2608.5 Z"/></g>
</svg>
