<?xml version="1.0" encoding="UTF-8"?>
<!DOCTYPE svg PUBLIC "-//W3C//DTD SVG 1.1//EN" "http://www.w3.org/Graphics/SVG/1.1/DTD/svg11.dtd">
<svg xmlns="http://www.w3.org/2000/svg" version="1.1" width="4292px" height="1499px" style="shape-rendering:geometricPrecision; text-rendering:geometricPrecision; image-rendering:optimizeQuality; fill-rule:evenodd; clip-rule:evenodd" xmlns:xlink="http://www.w3.org/1999/xlink">
<g><path style="opacity:0.995" fill="#fefffe" d="M 2011.5,240.5 C 2060.13,237.526 2106.13,247.026 2149.5,269C 2196.19,295.483 2224.36,335.316 2234,388.5C 2243.06,446.719 2238.06,503.719 2219,559.5C 2206.53,596.766 2190.53,632.433 2171,666.5C 2130.74,738.041 2086.74,807.041 2039,873.5C 2025.53,894.319 2022.87,916.319 2031,939.5C 2040.59,956.726 2055.43,965.393 2075.5,965.5C 2102.03,962.939 2125.7,953.439 2146.5,937C 2184.57,901.594 2214.07,860.094 2235,812.5C 2259.69,756.434 2276.69,698.101 2286,637.5C 2289.1,615.268 2290.94,592.935 2291.5,570.5C 2356.83,570.5 2422.17,570.5 2487.5,570.5C 2489.36,595.926 2496.19,619.926 2508,642.5C 2513.41,652.331 2519.08,661.998 2525,671.5C 2557.57,716.744 2588.57,763.077 2618,810.5C 2642.06,853.746 2653.4,900.079 2652,949.5C 2647.08,996.992 2628.41,1037.99 2596,1072.5C 2525.29,1148.04 2442.45,1164.54 2347.5,1122C 2313.56,1105.21 2282.56,1084.21 2254.5,1059C 2247.79,1051.96 2241.46,1044.63 2235.5,1037C 2233.23,1035.45 2230.73,1034.61 2228,1034.5C 2223.57,1035.46 2219.41,1037.13 2215.5,1039.5C 2178.99,1077.83 2136.32,1107.33 2087.5,1128C 2030.76,1149.88 1974.09,1149.88 1917.5,1128C 1889.2,1114.71 1866.04,1095.21 1848,1069.5C 1840.03,1058.27 1834.36,1045.94 1831,1032.5C 1828.52,1029.93 1825.85,1027.6 1823,1025.5C 1820.44,1027.73 1817.6,1029.56 1814.5,1031C 1786.82,1062.37 1755.82,1089.7 1721.5,1113C 1659.05,1148.81 1594.05,1154.14 1526.5,1129C 1481.9,1106.33 1456.07,1070.16 1449,1020.5C 1448.67,912.167 1448.33,803.833 1448,695.5C 1443.45,682.632 1434.28,675.132 1420.5,673C 1415.52,672.252 1410.52,671.752 1405.5,671.5C 1405.5,637.833 1405.5,604.167 1405.5,570.5C 1494.17,570.5 1582.83,570.5 1671.5,570.5C 1671.33,690.167 1671.5,809.834 1672,929.5C 1675.87,951.835 1689.04,962.335 1711.5,961C 1738.35,954.794 1759.85,940.628 1776,918.5C 1791.14,898.558 1803.48,876.891 1813,853.5C 1815.61,845.992 1817.61,838.326 1819,830.5C 1819.33,684.5 1819.67,538.5 1820,392.5C 1828.72,331.535 1860.88,288.035 1916.5,262C 1947.03,249.282 1978.7,242.115 2011.5,240.5 Z M 2070.5,365.5 C 2081.46,366.066 2090.3,370.733 2097,379.5C 2105.38,393.641 2110.38,408.975 2112,425.5C 2113.53,460.132 2108.53,493.798 2097,526.5C 2083.6,570.032 2065.94,611.699 2044,651.5C 2039.12,660.382 2032.78,668.048 2025,674.5C 2022.05,672.268 2020.38,669.268 2020,665.5C 2019.33,594.5 2019.33,523.5 2020,452.5C 2020.84,428.434 2027.84,406.434 2041,386.5C 2045.17,381.667 2049.67,377.167 2054.5,373C 2059.54,369.643 2064.88,367.143 2070.5,365.5 Z M 2363.5,784.5 C 2366.67,784.84 2368.84,786.507 2370,789.5C 2387.24,822.312 2404.24,855.312 2421,888.5C 2425.56,898.01 2428.39,908.01 2429.5,918.5C 2427.44,943.466 2416.44,963.299 2396.5,978C 2371.9,988.843 2348.57,986.51 2326.5,971C 2313.69,961.704 2305.02,949.537 2300.5,934.5C 2301.84,929.454 2303.34,924.454 2305,919.5C 2323.6,879.967 2340.27,839.633 2355,798.5C 2358.11,793.944 2360.94,789.277 2363.5,784.5 Z"/></g>
<g><path style="opacity:0.997" fill="#fefffe" d="M 251.5,276.5 C 360.5,276.5 469.5,276.5 578.5,276.5C 578.333,479.834 578.5,683.167 579,886.5C 583.007,920.169 601.173,942.002 633.5,952C 660.309,959.987 685.309,956.321 708.5,941C 726.467,924.898 736.3,904.732 738,880.5C 738.5,728.5 738.667,576.5 738.5,424.5C 706.5,424.5 674.5,424.5 642.5,424.5C 642.5,375.167 642.5,325.833 642.5,276.5C 751.167,276.5 859.833,276.5 968.5,276.5C 968.333,483.834 968.5,691.167 969,898.5C 971.973,932.472 990.306,951.805 1024,956.5C 1044.19,954.996 1062.03,947.829 1077.5,935C 1088.51,924.665 1098.01,913.165 1106,900.5C 1138.82,837.21 1155.32,769.877 1155.5,698.5C 1154.71,605.109 1140.71,513.776 1113.5,424.5C 1086.5,424.5 1059.5,424.5 1032.5,424.5C 1032.5,375.167 1032.5,325.833 1032.5,276.5C 1122.17,276.167 1211.84,276.5 1301.5,277.5C 1317.29,318.695 1329.12,361.028 1337,404.5C 1356.76,510.633 1365.09,617.633 1362,725.5C 1358.26,804.209 1341.26,879.876 1311,952.5C 1290.03,1001.3 1260.53,1044.13 1222.5,1081C 1206.29,1095.21 1188.96,1107.88 1170.5,1119C 1123.91,1142.32 1074.58,1152.32 1022.5,1149C 973.056,1148.19 929.056,1132.52 890.5,1102C 871.55,1086.72 855.05,1069.22 841,1049.5C 800.9,1101.83 748.067,1133.66 682.5,1145C 613.931,1154.79 548.597,1144.46 486.5,1114C 436.787,1086.29 400.287,1046.45 377,994.5C 360.59,957.193 350.923,918.193 348,877.5C 347.5,726.5 347.333,575.5 347.5,424.5C 315.5,424.5 283.5,424.5 251.5,424.5C 251.5,375.167 251.5,325.833 251.5,276.5 Z"/></g>
<g><path style="opacity:0.992" fill="#fefffe" d="M 1548.5,342.5 C 1587.57,340.279 1624.24,348.446 1658.5,367C 1694.16,390.848 1708,424.015 1700,466.5C 1687.84,510.659 1659.34,537.825 1614.5,548C 1571.2,557.336 1529.2,553.336 1488.5,536C 1446.19,516.217 1427.02,483.05 1431,436.5C 1441.42,387.415 1471.25,357.582 1520.5,347C 1529.91,345.063 1539.24,343.563 1548.5,342.5 Z"/></g>
<g><path style="opacity:0.995" fill="#fefffe" d="M 3724.5,556.5 C 3754.91,557.48 3783.58,564.98 3810.5,579C 3841.47,600.31 3862.97,628.81 3875,664.5C 3876.98,671.379 3878.31,678.379 3879,685.5C 3879.33,794.167 3879.67,902.833 3880,1011.5C 3882.56,1030.06 3893.06,1040.56 3911.5,1043C 3923.16,1043.5 3934.83,1043.67 3946.5,1043.5C 3946.5,1075.83 3946.5,1108.17 3946.5,1140.5C 3882.48,1140.96 3818.48,1140.46 3754.5,1139C 3694.58,1128.08 3662.42,1092.25 3658,1031.5C 3657.67,951.833 3657.33,872.167 3657,792.5C 3652.78,773.284 3641.28,760.784 3622.5,755C 3600.81,749.654 3580.14,752.321 3560.5,763C 3547.65,770.207 3539.81,781.04 3537,795.5C 3535.52,910.477 3535.02,1025.48 3535.5,1140.5C 3461.83,1140.5 3388.17,1140.5 3314.5,1140.5C 3314.67,1025.17 3314.5,909.833 3314,794.5C 3308.12,765.812 3292.28,758.645 3266.5,773C 3257.28,777.888 3250.45,785.055 3246,794.5C 3245.18,797.107 3244.68,799.774 3244.5,802.5C 3257.8,878.164 3245.63,949.497 3208,1016.5C 3178.69,1060.81 3139.85,1093.98 3091.5,1116C 3025.76,1146.03 2957.76,1152.37 2887.5,1135C 2826.02,1122.36 2775.18,1092.19 2735,1044.5C 2668.3,959.634 2650.63,865.301 2682,761.5C 2698.5,699.919 2733,651.419 2785.5,616C 2880.2,555.216 2980.2,545.216 3085.5,586C 3130.2,603.692 3166.2,632.358 3193.5,672C 3196.46,674.33 3199.79,674.996 3203.5,674C 3218.44,657.06 3234.1,640.727 3250.5,625C 3272.92,604.612 3297.92,587.946 3325.5,575C 3367.75,556.1 3410.08,555.767 3452.5,574C 3481.39,593.549 3503.89,618.716 3520,649.5C 3526,656.725 3532.5,657.225 3539.5,651C 3564.43,623.218 3593.1,600.218 3625.5,582C 3656.81,566.423 3689.81,557.923 3724.5,556.5 Z M 2954.5,710.5 C 2970.27,709.927 2984.61,714.094 2997.5,723C 3005.97,731.102 3011.47,740.935 3014,752.5C 3030.28,813.509 3031.62,874.842 3018,936.5C 3011.85,981.504 2986.35,1000 2941.5,992C 2920.68,987.176 2907.84,974.342 2903,953.5C 2885.81,888.67 2885.14,823.67 2901,758.5C 2906.47,728.527 2924.3,712.527 2954.5,710.5 Z"/></g>
<g><path style="opacity:0.893" fill="#fefffe" d="M 4033.5,1034.5 C 4072.73,1032.6 4094.73,1051.1 4099.5,1090C 4098.61,1112.21 4088.61,1128.87 4069.5,1140C 4041.55,1151.89 4017.72,1146.39 3998,1123.5C 3986.85,1106.73 3984.52,1088.73 3991,1069.5C 3999.37,1050.61 4013.54,1038.95 4033.5,1034.5 Z M 4041.5,1042.5 C 4070.8,1044.97 4087.14,1060.8 4090.5,1090C 4088.92,1113.57 4076.92,1128.9 4054.5,1136C 4026.88,1140.37 4008.05,1129.54 3998,1103.5C 3992.82,1078.37 4001.32,1059.54 4023.5,1047C 4029.48,1044.84 4035.48,1043.34 4041.5,1042.5 Z M 4031.5,1067.5 C 4039.02,1067.2 4046.35,1068.2 4053.5,1070.5C 4054.71,1073.08 4056.04,1075.58 4057.5,1078C 4055.17,1081 4052.83,1084 4050.5,1087C 4044.21,1088.11 4037.88,1088.61 4031.5,1088.5C 4031.5,1081.5 4031.5,1074.5 4031.5,1067.5 Z"/></g>
<g><path style="opacity:0.933" fill="#fefffe" d="M 4020.5,1058.5 C 4032.2,1058.23 4043.87,1058.73 4055.5,1060C 4065.6,1062.69 4069.76,1069.19 4068,1079.5C 4066.5,1082.5 4065,1085.5 4063.5,1088.5C 4061.07,1090.14 4058.41,1091.31 4055.5,1092C 4060.02,1094.15 4063.52,1097.32 4066,1101.5C 4067.22,1107.77 4068.05,1114.11 4068.5,1120.5C 4064.83,1120.5 4061.17,1120.5 4057.5,1120.5C 4057.42,1112.83 4055.42,1105.66 4051.5,1099C 4044.92,1097.4 4038.26,1096.57 4031.5,1096.5C 4031.5,1104.5 4031.5,1112.5 4031.5,1120.5C 4027.83,1120.5 4024.17,1120.5 4020.5,1120.5C 4020.5,1099.83 4020.5,1079.17 4020.5,1058.5 Z M 4031.5,1067.5 C 4031.5,1074.5 4031.5,1081.5 4031.5,1088.5C 4037.88,1088.61 4044.21,1088.11 4050.5,1087C 4052.83,1084 4055.17,1081 4057.5,1078C 4056.04,1075.58 4054.71,1073.08 4053.5,1070.5C 4046.35,1068.2 4039.02,1067.2 4031.5,1067.5 Z"/></g>
</svg>
